%TF.GenerationSoftware,KiCad,Pcbnew,9.0.2*%
%TF.CreationDate,2025-11-12T20:00:32+01:00*%
%TF.ProjectId,precise_ammeter,70726563-6973-4655-9f61-6d6d65746572,rev?*%
%TF.SameCoordinates,Original*%
%TF.FileFunction,Legend,Top*%
%TF.FilePolarity,Positive*%
%FSLAX46Y46*%
G04 Gerber Fmt 4.6, Leading zero omitted, Abs format (unit mm)*
G04 Created by KiCad (PCBNEW 9.0.2) date 2025-11-12 20:00:32*
%MOMM*%
%LPD*%
G01*
G04 APERTURE LIST*
%ADD10C,0.300000*%
%ADD11C,0.200000*%
%ADD12C,0.250000*%
%ADD13C,0.120000*%
%ADD14C,0.127000*%
G04 APERTURE END LIST*
D10*
X235079510Y-119129400D02*
X236222368Y-119129400D01*
X235650939Y-119700828D02*
X235650939Y-118557971D01*
X237650939Y-118200828D02*
X236936653Y-118200828D01*
X236936653Y-118200828D02*
X236865225Y-118915114D01*
X236865225Y-118915114D02*
X236936653Y-118843685D01*
X236936653Y-118843685D02*
X237079511Y-118772257D01*
X237079511Y-118772257D02*
X237436653Y-118772257D01*
X237436653Y-118772257D02*
X237579511Y-118843685D01*
X237579511Y-118843685D02*
X237650939Y-118915114D01*
X237650939Y-118915114D02*
X237722368Y-119057971D01*
X237722368Y-119057971D02*
X237722368Y-119415114D01*
X237722368Y-119415114D02*
X237650939Y-119557971D01*
X237650939Y-119557971D02*
X237579511Y-119629400D01*
X237579511Y-119629400D02*
X237436653Y-119700828D01*
X237436653Y-119700828D02*
X237079511Y-119700828D01*
X237079511Y-119700828D02*
X236936653Y-119629400D01*
X236936653Y-119629400D02*
X236865225Y-119557971D01*
X238150939Y-118200828D02*
X238650939Y-119700828D01*
X238650939Y-119700828D02*
X239150939Y-118200828D01*
D11*
X233241101Y-60331980D02*
X233193482Y-60379600D01*
X233193482Y-60379600D02*
X233050625Y-60427219D01*
X233050625Y-60427219D02*
X232955387Y-60427219D01*
X232955387Y-60427219D02*
X232812530Y-60379600D01*
X232812530Y-60379600D02*
X232717292Y-60284361D01*
X232717292Y-60284361D02*
X232669673Y-60189123D01*
X232669673Y-60189123D02*
X232622054Y-59998647D01*
X232622054Y-59998647D02*
X232622054Y-59855790D01*
X232622054Y-59855790D02*
X232669673Y-59665314D01*
X232669673Y-59665314D02*
X232717292Y-59570076D01*
X232717292Y-59570076D02*
X232812530Y-59474838D01*
X232812530Y-59474838D02*
X232955387Y-59427219D01*
X232955387Y-59427219D02*
X233050625Y-59427219D01*
X233050625Y-59427219D02*
X233193482Y-59474838D01*
X233193482Y-59474838D02*
X233241101Y-59522457D01*
X234145863Y-60427219D02*
X233669673Y-60427219D01*
X233669673Y-60427219D02*
X233669673Y-59427219D01*
X234479197Y-60427219D02*
X234479197Y-59427219D01*
X235050625Y-60427219D02*
X234622054Y-59855790D01*
X235050625Y-59427219D02*
X234479197Y-59998647D01*
X231569673Y-56927219D02*
X231569673Y-55927219D01*
X231569673Y-55927219D02*
X232141101Y-56927219D01*
X232141101Y-56927219D02*
X232141101Y-55927219D01*
X233188720Y-56927219D02*
X232855387Y-56451028D01*
X232617292Y-56927219D02*
X232617292Y-55927219D01*
X232617292Y-55927219D02*
X232998244Y-55927219D01*
X232998244Y-55927219D02*
X233093482Y-55974838D01*
X233093482Y-55974838D02*
X233141101Y-56022457D01*
X233141101Y-56022457D02*
X233188720Y-56117695D01*
X233188720Y-56117695D02*
X233188720Y-56260552D01*
X233188720Y-56260552D02*
X233141101Y-56355790D01*
X233141101Y-56355790D02*
X233093482Y-56403409D01*
X233093482Y-56403409D02*
X232998244Y-56451028D01*
X232998244Y-56451028D02*
X232617292Y-56451028D01*
X233569673Y-56879600D02*
X233712530Y-56927219D01*
X233712530Y-56927219D02*
X233950625Y-56927219D01*
X233950625Y-56927219D02*
X234045863Y-56879600D01*
X234045863Y-56879600D02*
X234093482Y-56831980D01*
X234093482Y-56831980D02*
X234141101Y-56736742D01*
X234141101Y-56736742D02*
X234141101Y-56641504D01*
X234141101Y-56641504D02*
X234093482Y-56546266D01*
X234093482Y-56546266D02*
X234045863Y-56498647D01*
X234045863Y-56498647D02*
X233950625Y-56451028D01*
X233950625Y-56451028D02*
X233760149Y-56403409D01*
X233760149Y-56403409D02*
X233664911Y-56355790D01*
X233664911Y-56355790D02*
X233617292Y-56308171D01*
X233617292Y-56308171D02*
X233569673Y-56212933D01*
X233569673Y-56212933D02*
X233569673Y-56117695D01*
X233569673Y-56117695D02*
X233617292Y-56022457D01*
X233617292Y-56022457D02*
X233664911Y-55974838D01*
X233664911Y-55974838D02*
X233760149Y-55927219D01*
X233760149Y-55927219D02*
X233998244Y-55927219D01*
X233998244Y-55927219D02*
X234141101Y-55974838D01*
X234426816Y-55927219D02*
X234998244Y-55927219D01*
X234712530Y-56927219D02*
X234712530Y-55927219D01*
X224622054Y-54119600D02*
X224764911Y-54167219D01*
X224764911Y-54167219D02*
X225003006Y-54167219D01*
X225003006Y-54167219D02*
X225098244Y-54119600D01*
X225098244Y-54119600D02*
X225145863Y-54071980D01*
X225145863Y-54071980D02*
X225193482Y-53976742D01*
X225193482Y-53976742D02*
X225193482Y-53881504D01*
X225193482Y-53881504D02*
X225145863Y-53786266D01*
X225145863Y-53786266D02*
X225098244Y-53738647D01*
X225098244Y-53738647D02*
X225003006Y-53691028D01*
X225003006Y-53691028D02*
X224812530Y-53643409D01*
X224812530Y-53643409D02*
X224717292Y-53595790D01*
X224717292Y-53595790D02*
X224669673Y-53548171D01*
X224669673Y-53548171D02*
X224622054Y-53452933D01*
X224622054Y-53452933D02*
X224622054Y-53357695D01*
X224622054Y-53357695D02*
X224669673Y-53262457D01*
X224669673Y-53262457D02*
X224717292Y-53214838D01*
X224717292Y-53214838D02*
X224812530Y-53167219D01*
X224812530Y-53167219D02*
X225050625Y-53167219D01*
X225050625Y-53167219D02*
X225193482Y-53214838D01*
X225622054Y-54167219D02*
X225622054Y-53167219D01*
X225622054Y-53167219D02*
X225860149Y-53167219D01*
X225860149Y-53167219D02*
X226003006Y-53214838D01*
X226003006Y-53214838D02*
X226098244Y-53310076D01*
X226098244Y-53310076D02*
X226145863Y-53405314D01*
X226145863Y-53405314D02*
X226193482Y-53595790D01*
X226193482Y-53595790D02*
X226193482Y-53738647D01*
X226193482Y-53738647D02*
X226145863Y-53929123D01*
X226145863Y-53929123D02*
X226098244Y-54024361D01*
X226098244Y-54024361D02*
X226003006Y-54119600D01*
X226003006Y-54119600D02*
X225860149Y-54167219D01*
X225860149Y-54167219D02*
X225622054Y-54167219D01*
X226574435Y-53881504D02*
X227050625Y-53881504D01*
X226479197Y-54167219D02*
X226812530Y-53167219D01*
X226812530Y-53167219D02*
X227145863Y-54167219D01*
D10*
X177040225Y-53000828D02*
X177540225Y-54500828D01*
X177540225Y-54500828D02*
X178040225Y-53000828D01*
X179040224Y-53715114D02*
X179254510Y-53786542D01*
X179254510Y-53786542D02*
X179325939Y-53857971D01*
X179325939Y-53857971D02*
X179397367Y-54000828D01*
X179397367Y-54000828D02*
X179397367Y-54215114D01*
X179397367Y-54215114D02*
X179325939Y-54357971D01*
X179325939Y-54357971D02*
X179254510Y-54429400D01*
X179254510Y-54429400D02*
X179111653Y-54500828D01*
X179111653Y-54500828D02*
X178540224Y-54500828D01*
X178540224Y-54500828D02*
X178540224Y-53000828D01*
X178540224Y-53000828D02*
X179040224Y-53000828D01*
X179040224Y-53000828D02*
X179183082Y-53072257D01*
X179183082Y-53072257D02*
X179254510Y-53143685D01*
X179254510Y-53143685D02*
X179325939Y-53286542D01*
X179325939Y-53286542D02*
X179325939Y-53429400D01*
X179325939Y-53429400D02*
X179254510Y-53572257D01*
X179254510Y-53572257D02*
X179183082Y-53643685D01*
X179183082Y-53643685D02*
X179040224Y-53715114D01*
X179040224Y-53715114D02*
X178540224Y-53715114D01*
X180040224Y-53000828D02*
X180040224Y-54215114D01*
X180040224Y-54215114D02*
X180111653Y-54357971D01*
X180111653Y-54357971D02*
X180183082Y-54429400D01*
X180183082Y-54429400D02*
X180325939Y-54500828D01*
X180325939Y-54500828D02*
X180611653Y-54500828D01*
X180611653Y-54500828D02*
X180754510Y-54429400D01*
X180754510Y-54429400D02*
X180825939Y-54357971D01*
X180825939Y-54357971D02*
X180897367Y-54215114D01*
X180897367Y-54215114D02*
X180897367Y-53000828D01*
X181540225Y-54429400D02*
X181754511Y-54500828D01*
X181754511Y-54500828D02*
X182111653Y-54500828D01*
X182111653Y-54500828D02*
X182254511Y-54429400D01*
X182254511Y-54429400D02*
X182325939Y-54357971D01*
X182325939Y-54357971D02*
X182397368Y-54215114D01*
X182397368Y-54215114D02*
X182397368Y-54072257D01*
X182397368Y-54072257D02*
X182325939Y-53929400D01*
X182325939Y-53929400D02*
X182254511Y-53857971D01*
X182254511Y-53857971D02*
X182111653Y-53786542D01*
X182111653Y-53786542D02*
X181825939Y-53715114D01*
X181825939Y-53715114D02*
X181683082Y-53643685D01*
X181683082Y-53643685D02*
X181611653Y-53572257D01*
X181611653Y-53572257D02*
X181540225Y-53429400D01*
X181540225Y-53429400D02*
X181540225Y-53286542D01*
X181540225Y-53286542D02*
X181611653Y-53143685D01*
X181611653Y-53143685D02*
X181683082Y-53072257D01*
X181683082Y-53072257D02*
X181825939Y-53000828D01*
X181825939Y-53000828D02*
X182183082Y-53000828D01*
X182183082Y-53000828D02*
X182397368Y-53072257D01*
D11*
X221422054Y-54119600D02*
X221564911Y-54167219D01*
X221564911Y-54167219D02*
X221803006Y-54167219D01*
X221803006Y-54167219D02*
X221898244Y-54119600D01*
X221898244Y-54119600D02*
X221945863Y-54071980D01*
X221945863Y-54071980D02*
X221993482Y-53976742D01*
X221993482Y-53976742D02*
X221993482Y-53881504D01*
X221993482Y-53881504D02*
X221945863Y-53786266D01*
X221945863Y-53786266D02*
X221898244Y-53738647D01*
X221898244Y-53738647D02*
X221803006Y-53691028D01*
X221803006Y-53691028D02*
X221612530Y-53643409D01*
X221612530Y-53643409D02*
X221517292Y-53595790D01*
X221517292Y-53595790D02*
X221469673Y-53548171D01*
X221469673Y-53548171D02*
X221422054Y-53452933D01*
X221422054Y-53452933D02*
X221422054Y-53357695D01*
X221422054Y-53357695D02*
X221469673Y-53262457D01*
X221469673Y-53262457D02*
X221517292Y-53214838D01*
X221517292Y-53214838D02*
X221612530Y-53167219D01*
X221612530Y-53167219D02*
X221850625Y-53167219D01*
X221850625Y-53167219D02*
X221993482Y-53214838D01*
X222993482Y-54071980D02*
X222945863Y-54119600D01*
X222945863Y-54119600D02*
X222803006Y-54167219D01*
X222803006Y-54167219D02*
X222707768Y-54167219D01*
X222707768Y-54167219D02*
X222564911Y-54119600D01*
X222564911Y-54119600D02*
X222469673Y-54024361D01*
X222469673Y-54024361D02*
X222422054Y-53929123D01*
X222422054Y-53929123D02*
X222374435Y-53738647D01*
X222374435Y-53738647D02*
X222374435Y-53595790D01*
X222374435Y-53595790D02*
X222422054Y-53405314D01*
X222422054Y-53405314D02*
X222469673Y-53310076D01*
X222469673Y-53310076D02*
X222564911Y-53214838D01*
X222564911Y-53214838D02*
X222707768Y-53167219D01*
X222707768Y-53167219D02*
X222803006Y-53167219D01*
X222803006Y-53167219D02*
X222945863Y-53214838D01*
X222945863Y-53214838D02*
X222993482Y-53262457D01*
X223898244Y-54167219D02*
X223422054Y-54167219D01*
X223422054Y-54167219D02*
X223422054Y-53167219D01*
X214426816Y-53167219D02*
X214760149Y-54167219D01*
X214760149Y-54167219D02*
X215093482Y-53167219D01*
X215998244Y-54071980D02*
X215950625Y-54119600D01*
X215950625Y-54119600D02*
X215807768Y-54167219D01*
X215807768Y-54167219D02*
X215712530Y-54167219D01*
X215712530Y-54167219D02*
X215569673Y-54119600D01*
X215569673Y-54119600D02*
X215474435Y-54024361D01*
X215474435Y-54024361D02*
X215426816Y-53929123D01*
X215426816Y-53929123D02*
X215379197Y-53738647D01*
X215379197Y-53738647D02*
X215379197Y-53595790D01*
X215379197Y-53595790D02*
X215426816Y-53405314D01*
X215426816Y-53405314D02*
X215474435Y-53310076D01*
X215474435Y-53310076D02*
X215569673Y-53214838D01*
X215569673Y-53214838D02*
X215712530Y-53167219D01*
X215712530Y-53167219D02*
X215807768Y-53167219D01*
X215807768Y-53167219D02*
X215950625Y-53214838D01*
X215950625Y-53214838D02*
X215998244Y-53262457D01*
X216998244Y-54071980D02*
X216950625Y-54119600D01*
X216950625Y-54119600D02*
X216807768Y-54167219D01*
X216807768Y-54167219D02*
X216712530Y-54167219D01*
X216712530Y-54167219D02*
X216569673Y-54119600D01*
X216569673Y-54119600D02*
X216474435Y-54024361D01*
X216474435Y-54024361D02*
X216426816Y-53929123D01*
X216426816Y-53929123D02*
X216379197Y-53738647D01*
X216379197Y-53738647D02*
X216379197Y-53595790D01*
X216379197Y-53595790D02*
X216426816Y-53405314D01*
X216426816Y-53405314D02*
X216474435Y-53310076D01*
X216474435Y-53310076D02*
X216569673Y-53214838D01*
X216569673Y-53214838D02*
X216712530Y-53167219D01*
X216712530Y-53167219D02*
X216807768Y-53167219D01*
X216807768Y-53167219D02*
X216950625Y-53214838D01*
X216950625Y-53214838D02*
X216998244Y-53262457D01*
X232869673Y-61967219D02*
X232869673Y-60967219D01*
X232869673Y-60967219D02*
X233107768Y-60967219D01*
X233107768Y-60967219D02*
X233250625Y-61014838D01*
X233250625Y-61014838D02*
X233345863Y-61110076D01*
X233345863Y-61110076D02*
X233393482Y-61205314D01*
X233393482Y-61205314D02*
X233441101Y-61395790D01*
X233441101Y-61395790D02*
X233441101Y-61538647D01*
X233441101Y-61538647D02*
X233393482Y-61729123D01*
X233393482Y-61729123D02*
X233345863Y-61824361D01*
X233345863Y-61824361D02*
X233250625Y-61919600D01*
X233250625Y-61919600D02*
X233107768Y-61967219D01*
X233107768Y-61967219D02*
X232869673Y-61967219D01*
X233869673Y-61967219D02*
X233869673Y-60967219D01*
X234536339Y-60967219D02*
X234726815Y-60967219D01*
X234726815Y-60967219D02*
X234822053Y-61014838D01*
X234822053Y-61014838D02*
X234917291Y-61110076D01*
X234917291Y-61110076D02*
X234964910Y-61300552D01*
X234964910Y-61300552D02*
X234964910Y-61633885D01*
X234964910Y-61633885D02*
X234917291Y-61824361D01*
X234917291Y-61824361D02*
X234822053Y-61919600D01*
X234822053Y-61919600D02*
X234726815Y-61967219D01*
X234726815Y-61967219D02*
X234536339Y-61967219D01*
X234536339Y-61967219D02*
X234441101Y-61919600D01*
X234441101Y-61919600D02*
X234345863Y-61824361D01*
X234345863Y-61824361D02*
X234298244Y-61633885D01*
X234298244Y-61633885D02*
X234298244Y-61300552D01*
X234298244Y-61300552D02*
X234345863Y-61110076D01*
X234345863Y-61110076D02*
X234441101Y-61014838D01*
X234441101Y-61014838D02*
X234536339Y-60967219D01*
D10*
X179411653Y-109757971D02*
X179340225Y-109829400D01*
X179340225Y-109829400D02*
X179125939Y-109900828D01*
X179125939Y-109900828D02*
X178983082Y-109900828D01*
X178983082Y-109900828D02*
X178768796Y-109829400D01*
X178768796Y-109829400D02*
X178625939Y-109686542D01*
X178625939Y-109686542D02*
X178554510Y-109543685D01*
X178554510Y-109543685D02*
X178483082Y-109257971D01*
X178483082Y-109257971D02*
X178483082Y-109043685D01*
X178483082Y-109043685D02*
X178554510Y-108757971D01*
X178554510Y-108757971D02*
X178625939Y-108615114D01*
X178625939Y-108615114D02*
X178768796Y-108472257D01*
X178768796Y-108472257D02*
X178983082Y-108400828D01*
X178983082Y-108400828D02*
X179125939Y-108400828D01*
X179125939Y-108400828D02*
X179340225Y-108472257D01*
X179340225Y-108472257D02*
X179411653Y-108543685D01*
X180697368Y-108900828D02*
X180697368Y-109900828D01*
X180054510Y-108900828D02*
X180054510Y-109686542D01*
X180054510Y-109686542D02*
X180125939Y-109829400D01*
X180125939Y-109829400D02*
X180268796Y-109900828D01*
X180268796Y-109900828D02*
X180483082Y-109900828D01*
X180483082Y-109900828D02*
X180625939Y-109829400D01*
X180625939Y-109829400D02*
X180697368Y-109757971D01*
X181411653Y-109900828D02*
X181411653Y-108900828D01*
X181411653Y-109186542D02*
X181483082Y-109043685D01*
X181483082Y-109043685D02*
X181554511Y-108972257D01*
X181554511Y-108972257D02*
X181697368Y-108900828D01*
X181697368Y-108900828D02*
X181840225Y-108900828D01*
X182340224Y-109900828D02*
X182340224Y-108900828D01*
X182340224Y-109186542D02*
X182411653Y-109043685D01*
X182411653Y-109043685D02*
X182483082Y-108972257D01*
X182483082Y-108972257D02*
X182625939Y-108900828D01*
X182625939Y-108900828D02*
X182768796Y-108900828D01*
X184411652Y-109900828D02*
X184411652Y-108400828D01*
X185125938Y-108900828D02*
X185125938Y-109900828D01*
X185125938Y-109043685D02*
X185197367Y-108972257D01*
X185197367Y-108972257D02*
X185340224Y-108900828D01*
X185340224Y-108900828D02*
X185554510Y-108900828D01*
X185554510Y-108900828D02*
X185697367Y-108972257D01*
X185697367Y-108972257D02*
X185768796Y-109115114D01*
X185768796Y-109115114D02*
X185768796Y-109900828D01*
X235079510Y-83129400D02*
X236222368Y-83129400D01*
X235650939Y-83700828D02*
X235650939Y-82557971D01*
X236793796Y-82200828D02*
X237722368Y-82200828D01*
X237722368Y-82200828D02*
X237222368Y-82772257D01*
X237222368Y-82772257D02*
X237436653Y-82772257D01*
X237436653Y-82772257D02*
X237579511Y-82843685D01*
X237579511Y-82843685D02*
X237650939Y-82915114D01*
X237650939Y-82915114D02*
X237722368Y-83057971D01*
X237722368Y-83057971D02*
X237722368Y-83415114D01*
X237722368Y-83415114D02*
X237650939Y-83557971D01*
X237650939Y-83557971D02*
X237579511Y-83629400D01*
X237579511Y-83629400D02*
X237436653Y-83700828D01*
X237436653Y-83700828D02*
X237008082Y-83700828D01*
X237008082Y-83700828D02*
X236865225Y-83629400D01*
X236865225Y-83629400D02*
X236793796Y-83557971D01*
X238150939Y-82200828D02*
X238650939Y-83700828D01*
X238650939Y-83700828D02*
X239150939Y-82200828D01*
X239508081Y-82200828D02*
X240436653Y-82200828D01*
X240436653Y-82200828D02*
X239936653Y-82772257D01*
X239936653Y-82772257D02*
X240150938Y-82772257D01*
X240150938Y-82772257D02*
X240293796Y-82843685D01*
X240293796Y-82843685D02*
X240365224Y-82915114D01*
X240365224Y-82915114D02*
X240436653Y-83057971D01*
X240436653Y-83057971D02*
X240436653Y-83415114D01*
X240436653Y-83415114D02*
X240365224Y-83557971D01*
X240365224Y-83557971D02*
X240293796Y-83629400D01*
X240293796Y-83629400D02*
X240150938Y-83700828D01*
X240150938Y-83700828D02*
X239722367Y-83700828D01*
X239722367Y-83700828D02*
X239579510Y-83629400D01*
X239579510Y-83629400D02*
X239508081Y-83557971D01*
D11*
X218493482Y-53214838D02*
X218398244Y-53167219D01*
X218398244Y-53167219D02*
X218255387Y-53167219D01*
X218255387Y-53167219D02*
X218112530Y-53214838D01*
X218112530Y-53214838D02*
X218017292Y-53310076D01*
X218017292Y-53310076D02*
X217969673Y-53405314D01*
X217969673Y-53405314D02*
X217922054Y-53595790D01*
X217922054Y-53595790D02*
X217922054Y-53738647D01*
X217922054Y-53738647D02*
X217969673Y-53929123D01*
X217969673Y-53929123D02*
X218017292Y-54024361D01*
X218017292Y-54024361D02*
X218112530Y-54119600D01*
X218112530Y-54119600D02*
X218255387Y-54167219D01*
X218255387Y-54167219D02*
X218350625Y-54167219D01*
X218350625Y-54167219D02*
X218493482Y-54119600D01*
X218493482Y-54119600D02*
X218541101Y-54071980D01*
X218541101Y-54071980D02*
X218541101Y-53738647D01*
X218541101Y-53738647D02*
X218350625Y-53738647D01*
X218969673Y-54167219D02*
X218969673Y-53167219D01*
X218969673Y-53167219D02*
X219541101Y-54167219D01*
X219541101Y-54167219D02*
X219541101Y-53167219D01*
X220017292Y-54167219D02*
X220017292Y-53167219D01*
X220017292Y-53167219D02*
X220255387Y-53167219D01*
X220255387Y-53167219D02*
X220398244Y-53214838D01*
X220398244Y-53214838D02*
X220493482Y-53310076D01*
X220493482Y-53310076D02*
X220541101Y-53405314D01*
X220541101Y-53405314D02*
X220588720Y-53595790D01*
X220588720Y-53595790D02*
X220588720Y-53738647D01*
X220588720Y-53738647D02*
X220541101Y-53929123D01*
X220541101Y-53929123D02*
X220493482Y-54024361D01*
X220493482Y-54024361D02*
X220398244Y-54119600D01*
X220398244Y-54119600D02*
X220255387Y-54167219D01*
X220255387Y-54167219D02*
X220017292Y-54167219D01*
D12*
X183466071Y-53809500D02*
X184608929Y-53809500D01*
X196466071Y-53809500D02*
X197608929Y-53809500D01*
X197037500Y-54380928D02*
X197037500Y-53238071D01*
D13*
%TO.C,Y1*%
X198590000Y-67022500D02*
X198590000Y-79742500D01*
X203810000Y-67022500D02*
X198590000Y-67022500D01*
X203810000Y-79742500D02*
X203810000Y-67022500D01*
%TO.C,R5*%
X211902500Y-63172936D02*
X211902500Y-63627064D01*
X213372500Y-63172936D02*
X213372500Y-63627064D01*
%TO.C,C20*%
X217751248Y-117965000D02*
X218273752Y-117965000D01*
X217751248Y-119435000D02*
X218273752Y-119435000D01*
%TO.C,C8*%
X192055000Y-87291252D02*
X192055000Y-86768748D01*
X193525000Y-87291252D02*
X193525000Y-86768748D01*
%TO.C,C36*%
X221465000Y-81438748D02*
X221465000Y-81961252D01*
X222935000Y-81438748D02*
X222935000Y-81961252D01*
%TO.C,JP1*%
X187050000Y-103600000D02*
X191150000Y-103600000D01*
X187050000Y-105600000D02*
X187050000Y-103600000D01*
X187500000Y-106100000D02*
X188100000Y-106100000D01*
X187800000Y-105800000D02*
X187500000Y-106100000D01*
X187800000Y-105800000D02*
X188100000Y-106100000D01*
X191150000Y-103600000D02*
X191150000Y-105600000D01*
X191150000Y-105600000D02*
X187050000Y-105600000D01*
%TO.C,D5*%
X211410000Y-80000000D02*
X207550000Y-80000000D01*
X211410000Y-82000000D02*
X207550000Y-82000000D01*
X211410000Y-82000000D02*
X211410000Y-80000000D01*
%TO.C,R3*%
X224872936Y-88765000D02*
X225327064Y-88765000D01*
X224872936Y-90235000D02*
X225327064Y-90235000D01*
%TO.C,C24*%
X181577500Y-57840000D02*
X181577500Y-59040000D01*
X181577500Y-62360000D02*
X181577500Y-61160000D01*
X185033063Y-57840000D02*
X181577500Y-57840000D01*
X185033063Y-62360000D02*
X181577500Y-62360000D01*
X186097500Y-58904437D02*
X185033063Y-57840000D01*
X186097500Y-58904437D02*
X186097500Y-59040000D01*
X186097500Y-61295563D02*
X185033063Y-62360000D01*
X186097500Y-61295563D02*
X186097500Y-61160000D01*
X186587500Y-61910000D02*
X186587500Y-61410000D01*
X186837500Y-61660000D02*
X186337500Y-61660000D01*
%TO.C,R7*%
X187027064Y-101065000D02*
X186572936Y-101065000D01*
X187027064Y-102535000D02*
X186572936Y-102535000D01*
%TO.C,R24*%
X217447936Y-98865000D02*
X217902064Y-98865000D01*
X217447936Y-100335000D02*
X217902064Y-100335000D01*
%TO.C,R_SENSE1*%
X190922936Y-109590000D02*
X192377064Y-109590000D01*
X190922936Y-111410000D02*
X192377064Y-111410000D01*
%TO.C,C25*%
X198476248Y-60065000D02*
X198998752Y-60065000D01*
X198476248Y-61535000D02*
X198998752Y-61535000D01*
%TO.C,C26*%
X188840000Y-61761252D02*
X188840000Y-61238748D01*
X190310000Y-61761252D02*
X190310000Y-61238748D01*
%TO.C,U2*%
X201796250Y-93967500D02*
X201796250Y-93167500D01*
X201796250Y-93967500D02*
X201796250Y-94767500D01*
X204916250Y-93967500D02*
X204916250Y-93167500D01*
X204916250Y-93967500D02*
X204916250Y-94767500D01*
X205196250Y-92907500D02*
X204866250Y-92667500D01*
X205196250Y-92427500D01*
X205196250Y-92907500D01*
G36*
X205196250Y-92907500D02*
G01*
X204866250Y-92667500D01*
X205196250Y-92427500D01*
X205196250Y-92907500D01*
G37*
%TO.C,JP2*%
X195300000Y-101700000D02*
X195300000Y-102300000D01*
X195600000Y-102000000D02*
X195300000Y-101700000D01*
X195600000Y-102000000D02*
X195300000Y-102300000D01*
X195800000Y-101250000D02*
X197800000Y-101250000D01*
X195800000Y-105350000D02*
X195800000Y-101250000D01*
X197800000Y-101250000D02*
X197800000Y-105350000D01*
X197800000Y-105350000D02*
X195800000Y-105350000D01*
%TO.C,C30*%
X211202500Y-70211252D02*
X211202500Y-69688748D01*
X212672500Y-70211252D02*
X212672500Y-69688748D01*
%TO.C,R12*%
X205621250Y-93894564D02*
X205621250Y-93440436D01*
X207091250Y-93894564D02*
X207091250Y-93440436D01*
%TO.C,D1*%
X235375000Y-122460000D02*
X238235000Y-122460000D01*
X238235000Y-120540000D02*
X235375000Y-120540000D01*
X238235000Y-122460000D02*
X238235000Y-120540000D01*
%TO.C,R31*%
X225172936Y-58665000D02*
X225627064Y-58665000D01*
X225172936Y-60135000D02*
X225627064Y-60135000D01*
%TO.C,C7*%
X182791248Y-95795000D02*
X183313752Y-95795000D01*
X182791248Y-97265000D02*
X183313752Y-97265000D01*
%TO.C,JP3*%
X219950000Y-95100000D02*
X224050000Y-95100000D01*
X219950000Y-97100000D02*
X219950000Y-95100000D01*
X223300000Y-94900000D02*
X223000000Y-94600000D01*
X223300000Y-94900000D02*
X223600000Y-94600000D01*
X223600000Y-94600000D02*
X223000000Y-94600000D01*
X224050000Y-95100000D02*
X224050000Y-97100000D01*
X224050000Y-97100000D02*
X219950000Y-97100000D01*
%TO.C,C13*%
X238338748Y-92865000D02*
X238861252Y-92865000D01*
X238338748Y-94335000D02*
X238861252Y-94335000D01*
%TO.C,C38*%
X213402500Y-70161252D02*
X213402500Y-69638748D01*
X214872500Y-70161252D02*
X214872500Y-69638748D01*
%TO.C,C37*%
X227838748Y-75765000D02*
X228361252Y-75765000D01*
X227838748Y-77235000D02*
X228361252Y-77235000D01*
%TO.C,C14*%
X238101248Y-99765000D02*
X238623752Y-99765000D01*
X238101248Y-101235000D02*
X238623752Y-101235000D01*
%TO.C,C27*%
X176237500Y-70240000D02*
X176737500Y-70240000D01*
X176487500Y-69990000D02*
X176487500Y-70490000D01*
X176977500Y-70604437D02*
X176977500Y-70740000D01*
X176977500Y-70604437D02*
X178041937Y-69540000D01*
X176977500Y-72995563D02*
X176977500Y-72860000D01*
X176977500Y-72995563D02*
X178041937Y-74060000D01*
X178041937Y-69540000D02*
X181497500Y-69540000D01*
X178041937Y-74060000D02*
X181497500Y-74060000D01*
X181497500Y-69540000D02*
X181497500Y-70740000D01*
X181497500Y-74060000D02*
X181497500Y-72860000D01*
%TO.C,C32*%
X227838748Y-77965000D02*
X228361252Y-77965000D01*
X227838748Y-79435000D02*
X228361252Y-79435000D01*
%TO.C,C19*%
X223515000Y-113261252D02*
X223515000Y-112738748D01*
X224985000Y-113261252D02*
X224985000Y-112738748D01*
%TO.C,R19*%
X211172936Y-103355000D02*
X211627064Y-103355000D01*
X211172936Y-104825000D02*
X211627064Y-104825000D01*
%TO.C,C28*%
X185761252Y-71065000D02*
X185238748Y-71065000D01*
X185761252Y-72535000D02*
X185238748Y-72535000D01*
%TO.C,C5*%
X204990000Y-55288748D02*
X204990000Y-55811252D01*
X206460000Y-55288748D02*
X206460000Y-55811252D01*
%TO.C,R21*%
X226390000Y-102222064D02*
X226390000Y-101767936D01*
X227860000Y-102222064D02*
X227860000Y-101767936D01*
%TO.C,D4*%
X216310000Y-83200000D02*
X212450000Y-83200000D01*
X216310000Y-85200000D02*
X212450000Y-85200000D01*
X216310000Y-85200000D02*
X216310000Y-83200000D01*
%TO.C,C11*%
X204157498Y-89932500D02*
X204680002Y-89932500D01*
X204157498Y-91402500D02*
X204680002Y-91402500D01*
%TO.C,R29*%
X232465000Y-76072936D02*
X232465000Y-76527064D01*
X233935000Y-76072936D02*
X233935000Y-76527064D01*
%TO.C,R30*%
X221027064Y-58665000D02*
X220572936Y-58665000D01*
X221027064Y-60135000D02*
X220572936Y-60135000D01*
%TO.C,C10*%
X205257498Y-96532500D02*
X205780002Y-96532500D01*
X205257498Y-98002500D02*
X205780002Y-98002500D01*
%TO.C,C2*%
X191313748Y-107065000D02*
X191836252Y-107065000D01*
X191313748Y-108535000D02*
X191836252Y-108535000D01*
%TO.C,C6*%
X191965000Y-94538748D02*
X191965000Y-95061252D01*
X193435000Y-94538748D02*
X193435000Y-95061252D01*
%TO.C,R22*%
X213065000Y-109627064D02*
X213065000Y-109172936D01*
X214535000Y-109627064D02*
X214535000Y-109172936D01*
%TO.C,C16*%
X233188752Y-104155000D02*
X232666248Y-104155000D01*
X233188752Y-105625000D02*
X232666248Y-105625000D01*
%TO.C,R10*%
X194165000Y-96672936D02*
X194165000Y-97127064D01*
X195635000Y-96672936D02*
X195635000Y-97127064D01*
%TO.C,U9*%
X182077500Y-66600000D02*
X182077500Y-64650000D01*
X182077500Y-66600000D02*
X182077500Y-68550000D01*
X187197500Y-66600000D02*
X187197500Y-64650000D01*
X187197500Y-66600000D02*
X187197500Y-68550000D01*
X187432500Y-64140000D02*
X187102500Y-63900000D01*
X187432500Y-63660000D01*
X187432500Y-64140000D01*
G36*
X187432500Y-64140000D02*
G01*
X187102500Y-63900000D01*
X187432500Y-63660000D01*
X187432500Y-64140000D01*
G37*
%TO.C,D6*%
X216700000Y-85210000D02*
X216700000Y-81350000D01*
X216700000Y-85210000D02*
X218700000Y-85210000D01*
X218700000Y-85210000D02*
X218700000Y-81350000D01*
%TO.C,J2*%
X204000000Y-120300000D02*
G75*
G02*
X193000000Y-120300000I-5500000J0D01*
G01*
X193000000Y-120300000D02*
G75*
G02*
X204000000Y-120300000I5500000J0D01*
G01*
%TO.C,C15*%
X228026248Y-111960000D02*
X228548752Y-111960000D01*
X228026248Y-113430000D02*
X228548752Y-113430000D01*
%TO.C,C12*%
X232123752Y-98865000D02*
X231601248Y-98865000D01*
X232123752Y-100335000D02*
X231601248Y-100335000D01*
%TO.C,R20*%
X224190000Y-106122064D02*
X224190000Y-105667936D01*
X225660000Y-106122064D02*
X225660000Y-105667936D01*
%TO.C,R4*%
X214827064Y-91765000D02*
X214372936Y-91765000D01*
X214827064Y-93235000D02*
X214372936Y-93235000D01*
%TO.C,C18*%
X217476248Y-106765000D02*
X217998752Y-106765000D01*
X217476248Y-108235000D02*
X217998752Y-108235000D01*
%TO.C,R8*%
X185762936Y-82595000D02*
X186217064Y-82595000D01*
X185762936Y-84065000D02*
X186217064Y-84065000D01*
%TO.C,C29*%
X204565000Y-69993752D02*
X204565000Y-69471248D01*
X206035000Y-69993752D02*
X206035000Y-69471248D01*
%TO.C,JP4*%
X211650000Y-94100000D02*
X215750000Y-94100000D01*
X211650000Y-96100000D02*
X211650000Y-94100000D01*
X215000000Y-93900000D02*
X214700000Y-93600000D01*
X215000000Y-93900000D02*
X215300000Y-93600000D01*
X215300000Y-93600000D02*
X214700000Y-93600000D01*
X215750000Y-94100000D02*
X215750000Y-96100000D01*
X215750000Y-96100000D02*
X211650000Y-96100000D01*
%TO.C,R16*%
X214827064Y-89765000D02*
X214372936Y-89765000D01*
X214827064Y-91235000D02*
X214372936Y-91235000D01*
%TO.C,D3*%
X214600000Y-65360000D02*
X217285000Y-65360000D01*
X217285000Y-63440000D02*
X214600000Y-63440000D01*
X217285000Y-65360000D02*
X217285000Y-63440000D01*
D14*
%TO.C,U4*%
X228105000Y-106275000D02*
X232005000Y-106275000D01*
X228105000Y-111325000D02*
X232005000Y-111325000D01*
D11*
X226115000Y-106495000D02*
G75*
G02*
X225915000Y-106495000I-100000J0D01*
G01*
X225915000Y-106495000D02*
G75*
G02*
X226115000Y-106495000I100000J0D01*
G01*
D13*
%TO.C,C34*%
X226238748Y-69675000D02*
X226761252Y-69675000D01*
X226238748Y-71145000D02*
X226761252Y-71145000D01*
%TO.C,C35*%
X223565000Y-81438748D02*
X223565000Y-81961252D01*
X225035000Y-81438748D02*
X225035000Y-81961252D01*
%TO.C,R15*%
X234827064Y-92215000D02*
X234372936Y-92215000D01*
X234827064Y-93685000D02*
X234372936Y-93685000D01*
%TO.C,D7*%
X216310000Y-79900000D02*
X212450000Y-79900000D01*
X216310000Y-81900000D02*
X212450000Y-81900000D01*
X216310000Y-81900000D02*
X216310000Y-79900000D01*
%TO.C,R23*%
X217822936Y-110265000D02*
X218277064Y-110265000D01*
X217822936Y-111735000D02*
X218277064Y-111735000D01*
%TO.C,R1*%
X214602500Y-60112936D02*
X214602500Y-60567064D01*
X216072500Y-60112936D02*
X216072500Y-60567064D01*
%TO.C,C9*%
X199471250Y-93306248D02*
X199471250Y-93828752D01*
X200941250Y-93306248D02*
X200941250Y-93828752D01*
%TO.C,J6*%
X215430000Y-54970000D02*
X216760000Y-54970000D01*
X215430000Y-56300000D02*
X215430000Y-54970000D01*
X218030000Y-54970000D02*
X225710000Y-54970000D01*
X218030000Y-57630000D02*
X218030000Y-54970000D01*
X218030000Y-57630000D02*
X225710000Y-57630000D01*
X225710000Y-57630000D02*
X225710000Y-54970000D01*
D11*
%TO.C,J3*%
X238097500Y-68740000D02*
X239307500Y-68740000D01*
X238097500Y-77680000D02*
X239307500Y-77680000D01*
X242027500Y-77680000D02*
X243517500Y-77680000D01*
X243517500Y-68740000D02*
X242027500Y-68740000D01*
X243517500Y-77680000D02*
X243517500Y-68740000D01*
X235107500Y-76990000D02*
G75*
G02*
X234907500Y-76990000I-100000J0D01*
G01*
X234907500Y-76990000D02*
G75*
G02*
X235107500Y-76990000I100000J0D01*
G01*
D13*
%TO.C,C33*%
X216765000Y-67561252D02*
X216765000Y-67038748D01*
X218235000Y-67561252D02*
X218235000Y-67038748D01*
%TO.C,U1*%
X183640000Y-84790000D02*
X183640000Y-95070000D01*
X183640000Y-95070000D02*
X188140000Y-95070000D01*
X184890000Y-84790000D02*
X183640000Y-84790000D01*
X188140000Y-84790000D02*
X186890000Y-84790000D01*
X188140000Y-95070000D02*
X188140000Y-84790000D01*
X186890000Y-84790000D02*
G75*
G02*
X184890000Y-84790000I-1000000J0D01*
G01*
%TO.C,U11*%
X217190000Y-71100000D02*
X217190000Y-71550000D01*
X217190000Y-78320000D02*
X217190000Y-77870000D01*
X217640000Y-71100000D02*
X217190000Y-71100000D01*
X217640000Y-78320000D02*
X217190000Y-78320000D01*
X223960000Y-71100000D02*
X224410000Y-71100000D01*
X223960000Y-78320000D02*
X224410000Y-78320000D01*
X224410000Y-71100000D02*
X224410000Y-71550000D01*
X224410000Y-78320000D02*
X224410000Y-77870000D01*
X216600000Y-71550000D02*
X216260000Y-71080000D01*
X216940000Y-71080000D01*
X216600000Y-71550000D01*
G36*
X216600000Y-71550000D02*
G01*
X216260000Y-71080000D01*
X216940000Y-71080000D01*
X216600000Y-71550000D01*
G37*
%TO.C,J5*%
X185327500Y-52290000D02*
X185327500Y-55110000D01*
X185327500Y-52290000D02*
X187027500Y-50990000D01*
X185327500Y-55110000D02*
X187027500Y-56410000D01*
X187027500Y-50990000D02*
X195747500Y-50990000D01*
X187027500Y-56410000D02*
X195747500Y-56410000D01*
X195747500Y-50990000D02*
X195747500Y-56410000D01*
%TO.C,C1*%
X201063748Y-51615000D02*
X201586252Y-51615000D01*
X201063748Y-53085000D02*
X201586252Y-53085000D01*
%TO.C,C31*%
X204565000Y-77121248D02*
X204565000Y-77643752D01*
X206035000Y-77121248D02*
X206035000Y-77643752D01*
%TO.C,U7*%
X200987500Y-57060000D02*
X202787500Y-57060000D01*
X201987500Y-53840000D02*
X201187500Y-53840000D01*
X201987500Y-53840000D02*
X202787500Y-53840000D01*
X200687500Y-53890000D02*
X200447500Y-53560000D01*
X200927500Y-53560000D01*
X200687500Y-53890000D01*
G36*
X200687500Y-53890000D02*
G01*
X200447500Y-53560000D01*
X200927500Y-53560000D01*
X200687500Y-53890000D01*
G37*
%TO.C,R27*%
X232365000Y-120347936D02*
X232365000Y-120802064D01*
X233835000Y-120347936D02*
X233835000Y-120802064D01*
%TO.C,U10*%
X193400000Y-63110000D02*
X192600000Y-63110000D01*
X193400000Y-63110000D02*
X194200000Y-63110000D01*
X194400000Y-59890000D02*
X192600000Y-59890000D01*
X194940000Y-63390000D02*
X194460000Y-63390000D01*
X194700000Y-63060000D01*
X194940000Y-63390000D01*
G36*
X194940000Y-63390000D02*
G01*
X194460000Y-63390000D01*
X194700000Y-63060000D01*
X194940000Y-63390000D01*
G37*
%TO.C,R2*%
X221265000Y-92472936D02*
X221265000Y-92927064D01*
X222735000Y-92472936D02*
X222735000Y-92927064D01*
%TO.C,U5*%
X219175000Y-112240000D02*
X217225000Y-112240000D01*
X219175000Y-112240000D02*
X221125000Y-112240000D01*
X219175000Y-117360000D02*
X217225000Y-117360000D01*
X219175000Y-117360000D02*
X221125000Y-117360000D01*
X216475000Y-112335000D02*
X216235000Y-112005000D01*
X216715000Y-112005000D01*
X216475000Y-112335000D01*
G36*
X216475000Y-112335000D02*
G01*
X216235000Y-112005000D01*
X216715000Y-112005000D01*
X216475000Y-112335000D01*
G37*
%TO.C,C40*%
X212465000Y-56738748D02*
X212465000Y-57261252D01*
X213935000Y-56738748D02*
X213935000Y-57261252D01*
%TO.C,R9*%
X189017064Y-95595000D02*
X188562936Y-95595000D01*
X189017064Y-97065000D02*
X188562936Y-97065000D01*
%TO.C,R26*%
X232365000Y-84272936D02*
X232365000Y-84727064D01*
X233835000Y-84272936D02*
X233835000Y-84727064D01*
%TO.C,JP5*%
X203106250Y-87167500D02*
X205906250Y-87167500D01*
X203106250Y-89167500D02*
X203106250Y-87167500D01*
X205906250Y-87167500D02*
X205906250Y-89167500D01*
X205906250Y-89167500D02*
X203106250Y-89167500D01*
%TO.C,U6*%
X218900000Y-100840000D02*
X216950000Y-100840000D01*
X218900000Y-100840000D02*
X220850000Y-100840000D01*
X218900000Y-105960000D02*
X216950000Y-105960000D01*
X218900000Y-105960000D02*
X220850000Y-105960000D01*
X216200000Y-100935000D02*
X215960000Y-100605000D01*
X216440000Y-100605000D01*
X216200000Y-100935000D01*
G36*
X216200000Y-100935000D02*
G01*
X215960000Y-100605000D01*
X216440000Y-100605000D01*
X216200000Y-100935000D01*
G37*
%TO.C,C4*%
X217165000Y-91201248D02*
X217165000Y-91723752D01*
X218635000Y-91201248D02*
X218635000Y-91723752D01*
%TO.C,U8*%
X189240000Y-67250000D02*
X189240000Y-69050000D01*
X192460000Y-68250000D02*
X192460000Y-67450000D01*
X192460000Y-68250000D02*
X192460000Y-69050000D01*
X192740000Y-67190000D02*
X192410000Y-66950000D01*
X192740000Y-66710000D01*
X192740000Y-67190000D01*
G36*
X192740000Y-67190000D02*
G01*
X192410000Y-66950000D01*
X192740000Y-66710000D01*
X192740000Y-67190000D01*
G37*
%TO.C,C21*%
X223240000Y-101761252D02*
X223240000Y-101238748D01*
X224710000Y-101761252D02*
X224710000Y-101238748D01*
%TO.C,JP6*%
X228625000Y-95450000D02*
X230625000Y-95450000D01*
X228625000Y-98250000D02*
X228625000Y-95450000D01*
X230625000Y-95450000D02*
X230625000Y-98250000D01*
X230625000Y-98250000D02*
X228625000Y-98250000D01*
%TO.C,J1*%
X189500000Y-120300000D02*
G75*
G02*
X178500000Y-120300000I-5500000J0D01*
G01*
X178500000Y-120300000D02*
G75*
G02*
X189500000Y-120300000I5500000J0D01*
G01*
%TO.C,R18*%
X211172936Y-114765000D02*
X211627064Y-114765000D01*
X211172936Y-116235000D02*
X211627064Y-116235000D01*
%TO.C,R14*%
X238365000Y-96572936D02*
X238365000Y-97027064D01*
X239835000Y-96572936D02*
X239835000Y-97027064D01*
%TO.C,C3*%
X224901248Y-90965000D02*
X225423752Y-90965000D01*
X224901248Y-92435000D02*
X225423752Y-92435000D01*
%TO.C,R11*%
X195529186Y-92032500D02*
X195983314Y-92032500D01*
X195529186Y-93502500D02*
X195983314Y-93502500D01*
%TO.C,R17*%
X236765000Y-103777064D02*
X236765000Y-103322936D01*
X238235000Y-103777064D02*
X238235000Y-103322936D01*
%TO.C,J4*%
X236350000Y-62115000D02*
X236350000Y-55545000D01*
X237212077Y-55545000D02*
X236350000Y-55545000D01*
X237212077Y-62115000D02*
X236350000Y-62115000D01*
X238482077Y-55545000D02*
X237847923Y-55545000D01*
X239980000Y-55545000D02*
X239117923Y-55545000D01*
X239980000Y-60560000D02*
X239466708Y-60560000D01*
X239980000Y-60560000D02*
X239980000Y-55545000D01*
X239980000Y-61370000D02*
X239980000Y-62180000D01*
X239980000Y-62180000D02*
X238800000Y-62180000D01*
%TO.C,R13*%
X201621250Y-98394564D02*
X201621250Y-97940436D01*
X203091250Y-98394564D02*
X203091250Y-97940436D01*
%TO.C,R6*%
X189327064Y-98965000D02*
X188872936Y-98965000D01*
X189327064Y-100435000D02*
X188872936Y-100435000D01*
%TO.C,R28*%
X232465000Y-70327064D02*
X232465000Y-69872936D01*
X233935000Y-70327064D02*
X233935000Y-69872936D01*
%TO.C,U3*%
X235700000Y-95390000D02*
X234900000Y-95390000D01*
X235700000Y-95390000D02*
X236500000Y-95390000D01*
X235700000Y-98510000D02*
X234900000Y-98510000D01*
X235700000Y-98510000D02*
X236500000Y-98510000D01*
X234400000Y-95440000D02*
X234160000Y-95110000D01*
X234640000Y-95110000D01*
X234400000Y-95440000D01*
G36*
X234400000Y-95440000D02*
G01*
X234160000Y-95110000D01*
X234640000Y-95110000D01*
X234400000Y-95440000D01*
G37*
%TO.C,D2*%
X235375000Y-86360000D02*
X238235000Y-86360000D01*
X238235000Y-84440000D02*
X235375000Y-84440000D01*
X238235000Y-86360000D02*
X238235000Y-84440000D01*
%TO.C,C23*%
X192601248Y-71315000D02*
X193123752Y-71315000D01*
X192601248Y-72785000D02*
X193123752Y-72785000D01*
%TO.C,R25*%
X205972936Y-73665000D02*
X206427064Y-73665000D01*
X205972936Y-75135000D02*
X206427064Y-75135000D01*
%TO.C,C22*%
X193265000Y-67398748D02*
X193265000Y-67921252D01*
X194735000Y-67398748D02*
X194735000Y-67921252D01*
%TO.C,C17*%
X227926248Y-104260000D02*
X228448752Y-104260000D01*
X227926248Y-105730000D02*
X228448752Y-105730000D01*
%TO.C,U12*%
X229600000Y-72220000D02*
X228550000Y-72220000D01*
X229600000Y-74200000D02*
X228300000Y-74200000D01*
X228180000Y-72220000D02*
X227900000Y-72220000D01*
X228180000Y-71940000D01*
X228180000Y-72220000D01*
G36*
X228180000Y-72220000D02*
G01*
X227900000Y-72220000D01*
X228180000Y-71940000D01*
X228180000Y-72220000D01*
G37*
%TD*%
M02*
