M48
; DRILL file {KiCad 9.0.2} date 2025-11-12T20:00:31+0100
; FORMAT={-:-/ absolute / metric / decimal}
; #@! TF.CreationDate,2025-11-12T20:00:31+01:00
; #@! TF.GenerationSoftware,Kicad,Pcbnew,9.0.2
; #@! TF.FileFunction,Plated,1,2,PTH
FMAT,2
METRIC
; #@! TA.AperFunction,Plated,PTH,ViaDrill
T1C0.300
; #@! TA.AperFunction,Plated,PTH,ComponentDrill
T2C0.650
; #@! TA.AperFunction,Plated,PTH,ComponentDrill
T3C0.800
; #@! TA.AperFunction,Plated,PTH,ComponentDrill
T4C1.000
; #@! TA.AperFunction,Plated,PTH,ComponentDrill
T5C2.100
; #@! TA.AperFunction,Plated,PTH,ComponentDrill
T6C2.200
; #@! TA.AperFunction,Plated,PTH,ComponentDrill
T7C6.100
%
G90
G05
T1
X177.4Y-69.1
X184.0Y-66.0
X184.1Y-98.0
X187.8Y-98.0
X188.0Y-60.5
X190.9Y-68.1
X192.6Y-104.6
X193.5Y-61.5
X193.9Y-73.3
X194.0Y-69.9
X194.2Y-86.2
X194.7Y-106.0
X196.4Y-97.9
X197.7Y-83.2
X197.7Y-87.1
X197.9Y-69.2
X197.9Y-70.4
X197.9Y-71.6
X197.9Y-72.8
X197.9Y-74.0
X197.9Y-75.3
X197.9Y-76.6
X197.9Y-77.9
X197.9Y-79.1
X197.9Y-80.5
X198.0Y-67.8
X198.6Y-94.6
X199.1Y-81.1
X199.3Y-66.4
X199.8Y-59.4
X200.6Y-81.1
X200.8Y-99.2
X201.2Y-66.3
X201.6Y-85.0
X201.6Y-90.5
X202.0Y-55.5
X202.3Y-81.1
X203.6Y-66.5
X203.7Y-81.1
X203.9Y-52.4
X204.8Y-104.1
X204.9Y-80.6
X205.3Y-66.9
X205.3Y-72.5
X205.5Y-112.2
X205.6Y-99.5
X205.7Y-58.0
X205.8Y-79.8
X206.2Y-100.7
X206.5Y-72.7
X206.5Y-95.9
X206.6Y-81.0
X206.7Y-90.7
X206.8Y-67.5
X206.9Y-77.6
X206.9Y-79.0
X207.3Y-69.3
X207.5Y-76.4
X207.944Y-94.256
X208.0Y-70.3
X208.6Y-104.1
X208.8Y-71.3
X209.0Y-75.65
X209.2Y-112.2
X209.8Y-72.3
X210.4Y-75.6
X210.65Y-97.95
X211.0Y-72.9
X211.1Y-99.2
X211.9Y-68.0
X212.0Y-75.6
X212.2Y-90.5
X212.5Y-72.9
X212.7Y-79.6
X213.197Y-59.165
X213.4Y-97.3
X213.6Y-86.5
X213.9Y-72.9
X214.1Y-68.0
X215.6Y-89.0
X215.9Y-66.4
X216.8Y-59.8
X217.9Y-86.1
X218.0Y-95.4
X218.6Y-71.9
X218.6Y-96.9
X219.5Y-92.5
X220.0Y-107.7
X220.4Y-118.7
X221.05Y-77.75
X221.1Y-66.7
X221.1Y-72.6
X221.6Y-86.6
X221.7Y-85.1
X222.4Y-83.7
X222.6Y-65.2
X222.6Y-89.5
X222.7Y-100.5
X223.0Y-77.6
X223.4Y-72.5
X223.8Y-66.0
X224.3Y-110.7
X224.5Y-83.6
X225.3Y-103.6
X225.6Y-99.5
X225.6Y-117.2
X226.6Y-95.0
X227.0Y-73.2
X227.1Y-99.7
X227.4Y-69.1
X227.6Y-89.5
X227.6Y-91.7
X229.5Y-120.575
X230.2Y-76.5
X230.2Y-78.7
X230.6Y-112.7
X230.8Y-101.0
X231.8Y-69.1
X231.9Y-103.5
X232.9Y-97.0
X233.15Y-78.55
X234.3Y-99.8
X234.3Y-108.2
X234.3Y-109.4
X235.0Y-76.2
X235.0Y-78.0
X235.1Y-68.2
X235.1Y-69.0
X236.7Y-109.3
X237.5Y-74.01
X237.6Y-72.65
X238.6Y-67.0
X238.6Y-67.9
X238.6Y-78.1
X238.6Y-79.0
X238.6Y-108.2
X238.7Y-69.4
X238.8Y-76.7
X239.0Y-85.4
X239.2Y-121.5
X239.4Y-102.0
X239.5Y-70.3
X239.5Y-71.7
X239.5Y-73.1
X239.5Y-74.5
X239.5Y-75.9
X239.6Y-92.2
X240.4Y-95.8
T2
X237.53Y-56.29
X237.53Y-57.56
X237.53Y-58.83
X237.53Y-60.1
X237.53Y-61.37
X238.8Y-56.29
X238.8Y-57.56
X238.8Y-58.83
X238.8Y-60.1
X238.8Y-61.37
T3
X182.08Y-86.12
X182.08Y-88.66
X182.08Y-91.2
X182.08Y-93.74
X189.7Y-86.12
X189.7Y-88.66
X189.7Y-91.2
X189.7Y-93.74
T4
X216.76Y-56.3
X219.3Y-56.3
X221.84Y-56.3
X224.38Y-56.3
T5
X188.037Y-53.7
T6
X193.037Y-53.7
T7
X184.0Y-120.3
X198.5Y-120.3
M30
