%TF.GenerationSoftware,KiCad,Pcbnew,9.0.2*%
%TF.CreationDate,2025-11-12T20:00:32+01:00*%
%TF.ProjectId,precise_ammeter,70726563-6973-4655-9f61-6d6d65746572,rev?*%
%TF.SameCoordinates,Original*%
%TF.FileFunction,Soldermask,Top*%
%TF.FilePolarity,Negative*%
%FSLAX46Y46*%
G04 Gerber Fmt 4.6, Leading zero omitted, Abs format (unit mm)*
G04 Created by KiCad (PCBNEW 9.0.2) date 2025-11-12 20:00:32*
%MOMM*%
%LPD*%
G01*
G04 APERTURE LIST*
G04 Aperture macros list*
%AMRoundRect*
0 Rectangle with rounded corners*
0 $1 Rounding radius*
0 $2 $3 $4 $5 $6 $7 $8 $9 X,Y pos of 4 corners*
0 Add a 4 corners polygon primitive as box body*
4,1,4,$2,$3,$4,$5,$6,$7,$8,$9,$2,$3,0*
0 Add four circle primitives for the rounded corners*
1,1,$1+$1,$2,$3*
1,1,$1+$1,$4,$5*
1,1,$1+$1,$6,$7*
1,1,$1+$1,$8,$9*
0 Add four rect primitives between the rounded corners*
20,1,$1+$1,$2,$3,$4,$5,0*
20,1,$1+$1,$4,$5,$6,$7,0*
20,1,$1+$1,$6,$7,$8,$9,0*
20,1,$1+$1,$8,$9,$2,$3,0*%
G04 Aperture macros list end*
%ADD10RoundRect,0.250000X-0.750000X2.000000X-0.750000X-2.000000X0.750000X-2.000000X0.750000X2.000000X0*%
%ADD11RoundRect,0.250000X-0.450000X0.350000X-0.450000X-0.350000X0.450000X-0.350000X0.450000X0.350000X0*%
%ADD12RoundRect,0.250000X-0.337500X-0.475000X0.337500X-0.475000X0.337500X0.475000X-0.337500X0.475000X0*%
%ADD13RoundRect,0.250000X0.475000X-0.337500X0.475000X0.337500X-0.475000X0.337500X-0.475000X-0.337500X0*%
%ADD14RoundRect,0.250000X-0.475000X0.250000X-0.475000X-0.250000X0.475000X-0.250000X0.475000X0.250000X0*%
%ADD15R,1.000000X1.500000*%
%ADD16RoundRect,0.250000X0.300000X0.300000X-0.300000X0.300000X-0.300000X-0.300000X0.300000X-0.300000X0*%
%ADD17RoundRect,0.250000X-0.350000X-0.450000X0.350000X-0.450000X0.350000X0.450000X-0.350000X0.450000X0*%
%ADD18RoundRect,0.250000X1.050000X0.550000X-1.050000X0.550000X-1.050000X-0.550000X1.050000X-0.550000X0*%
%ADD19RoundRect,0.250000X0.350000X0.450000X-0.350000X0.450000X-0.350000X-0.450000X0.350000X-0.450000X0*%
%ADD20RoundRect,0.250000X-0.400000X-0.625000X0.400000X-0.625000X0.400000X0.625000X-0.400000X0.625000X0*%
%ADD21RoundRect,0.150000X-0.150000X0.512500X-0.150000X-0.512500X0.150000X-0.512500X0.150000X0.512500X0*%
%ADD22R,1.500000X1.000000*%
%ADD23RoundRect,0.250000X0.475000X-0.250000X0.475000X0.250000X-0.475000X0.250000X-0.475000X-0.250000X0*%
%ADD24RoundRect,0.250000X0.450000X-0.350000X0.450000X0.350000X-0.450000X0.350000X-0.450000X-0.350000X0*%
%ADD25RoundRect,0.250000X0.325000X0.450000X-0.325000X0.450000X-0.325000X-0.450000X0.325000X-0.450000X0*%
%ADD26RoundRect,0.250000X-0.250000X-0.475000X0.250000X-0.475000X0.250000X0.475000X-0.250000X0.475000X0*%
%ADD27RoundRect,0.250000X-1.050000X-0.550000X1.050000X-0.550000X1.050000X0.550000X-1.050000X0.550000X0*%
%ADD28RoundRect,0.250000X0.337500X0.475000X-0.337500X0.475000X-0.337500X-0.475000X0.337500X-0.475000X0*%
%ADD29RoundRect,0.250000X-0.475000X0.337500X-0.475000X-0.337500X0.475000X-0.337500X0.475000X0.337500X0*%
%ADD30RoundRect,0.150000X-0.150000X0.825000X-0.150000X-0.825000X0.150000X-0.825000X0.150000X0.825000X0*%
%ADD31RoundRect,0.250000X0.300000X-0.300000X0.300000X0.300000X-0.300000X0.300000X-0.300000X-0.300000X0*%
%ADD32C,10.160000*%
%ADD33RoundRect,0.243750X0.243750X0.456250X-0.243750X0.456250X-0.243750X-0.456250X0.243750X-0.456250X0*%
%ADD34RoundRect,0.100500X-0.986500X-0.301500X0.986500X-0.301500X0.986500X0.301500X-0.986500X0.301500X0*%
%ADD35R,1.700000X1.700000*%
%ADD36C,1.700000*%
%ADD37C,0.650000*%
%ADD38RoundRect,0.102000X0.575000X-0.300000X0.575000X0.300000X-0.575000X0.300000X-0.575000X-0.300000X0*%
%ADD39RoundRect,0.102000X0.575000X-0.150000X0.575000X0.150000X-0.575000X0.150000X-0.575000X-0.150000X0*%
%ADD40RoundRect,0.102000X1.000000X-1.090000X1.000000X1.090000X-1.000000X1.090000X-1.000000X-1.090000X0*%
%ADD41RoundRect,0.250000X-0.950000X-0.550000X0.950000X-0.550000X0.950000X0.550000X-0.950000X0.550000X0*%
%ADD42O,2.400000X1.600000*%
%ADD43RoundRect,0.075000X-0.662500X-0.075000X0.662500X-0.075000X0.662500X0.075000X-0.662500X0.075000X0*%
%ADD44RoundRect,0.075000X-0.075000X-0.662500X0.075000X-0.662500X0.075000X0.662500X-0.075000X0.662500X0*%
%ADD45RoundRect,0.750000X-1.000000X-0.750000X1.000000X-0.750000X1.000000X0.750000X-1.000000X0.750000X0*%
%ADD46C,3.500000*%
%ADD47RoundRect,0.162500X-0.617500X-0.162500X0.617500X-0.162500X0.617500X0.162500X-0.617500X0.162500X0*%
%ADD48RoundRect,0.162500X0.617500X0.162500X-0.617500X0.162500X-0.617500X-0.162500X0.617500X-0.162500X0*%
%ADD49RoundRect,0.150000X-0.825000X-0.150000X0.825000X-0.150000X0.825000X0.150000X-0.825000X0.150000X0*%
%ADD50RoundRect,0.162500X-0.162500X0.617500X-0.162500X-0.617500X0.162500X-0.617500X0.162500X0.617500X0*%
%ADD51R,1.000000X1.000000*%
%ADD52C,1.000000*%
%ADD53RoundRect,0.150000X-0.512500X-0.150000X0.512500X-0.150000X0.512500X0.150000X-0.512500X0.150000X0*%
%ADD54RoundRect,0.093750X-0.156250X-0.093750X0.156250X-0.093750X0.156250X0.093750X-0.156250X0.093750X0*%
%ADD55RoundRect,0.075000X-0.250000X-0.075000X0.250000X-0.075000X0.250000X0.075000X-0.250000X0.075000X0*%
G04 APERTURE END LIST*
%TO.C,JP1*%
G36*
X188300000Y-103850000D02*
G01*
X189900000Y-103850000D01*
X189900000Y-105350000D01*
X188300000Y-105350000D01*
X188300000Y-103850000D01*
G37*
%TO.C,JP2*%
G36*
X197550000Y-102500000D02*
G01*
X196050000Y-102500000D01*
X196050000Y-104100000D01*
X197550000Y-104100000D01*
X197550000Y-102500000D01*
G37*
%TO.C,JP3*%
G36*
X222800000Y-96850000D02*
G01*
X221200000Y-96850000D01*
X221200000Y-95350000D01*
X222800000Y-95350000D01*
X222800000Y-96850000D01*
G37*
%TO.C,JP4*%
G36*
X214500000Y-95850000D02*
G01*
X212900000Y-95850000D01*
X212900000Y-94350000D01*
X214500000Y-94350000D01*
X214500000Y-95850000D01*
G37*
%TO.C,JP5*%
G36*
X204356250Y-87417500D02*
G01*
X204656250Y-87417500D01*
X204656250Y-88917500D01*
X204356250Y-88917500D01*
X204356250Y-87417500D01*
G37*
%TO.C,JP6*%
G36*
X228875000Y-97000000D02*
G01*
X230375000Y-97000000D01*
X230375000Y-96700000D01*
X228875000Y-96700000D01*
X228875000Y-97000000D01*
G37*
%TD*%
D10*
%TO.C,Y1*%
X201200000Y-69532500D03*
X201200000Y-78032500D03*
%TD*%
D11*
%TO.C,R5*%
X212637500Y-62400000D03*
X212637500Y-64400000D03*
%TD*%
D12*
%TO.C,C20*%
X216975000Y-118700000D03*
X219050000Y-118700000D03*
%TD*%
D13*
%TO.C,C8*%
X192790000Y-88067500D03*
X192790000Y-85992500D03*
%TD*%
D14*
%TO.C,C36*%
X222200000Y-80750000D03*
X222200000Y-82650000D03*
%TD*%
D15*
%TO.C,JP1*%
X187800000Y-104600000D03*
X189100000Y-104600000D03*
X190400000Y-104600000D03*
%TD*%
D16*
%TO.C,D5*%
X210600000Y-81000000D03*
X207800000Y-81000000D03*
%TD*%
D17*
%TO.C,R3*%
X224100000Y-89500000D03*
X226100000Y-89500000D03*
%TD*%
D18*
%TO.C,C24*%
X185637500Y-60100000D03*
X182037500Y-60100000D03*
%TD*%
D19*
%TO.C,R7*%
X187800000Y-101800000D03*
X185800000Y-101800000D03*
%TD*%
D17*
%TO.C,R24*%
X216675000Y-99600000D03*
X218675000Y-99600000D03*
%TD*%
D20*
%TO.C,R_SENSE1*%
X190100000Y-110500000D03*
X193200000Y-110500000D03*
%TD*%
D12*
%TO.C,C25*%
X197700000Y-60800000D03*
X199775000Y-60800000D03*
%TD*%
D13*
%TO.C,C26*%
X189575000Y-62537500D03*
X189575000Y-60462500D03*
%TD*%
D21*
%TO.C,U2*%
X204306250Y-92830000D03*
X203356250Y-92830000D03*
X202406250Y-92830000D03*
X202406250Y-95105000D03*
X204306250Y-95105000D03*
%TD*%
D22*
%TO.C,JP2*%
X196800000Y-102000000D03*
X196800000Y-103300000D03*
X196800000Y-104600000D03*
%TD*%
D23*
%TO.C,C30*%
X211937500Y-70900000D03*
X211937500Y-69000000D03*
%TD*%
D24*
%TO.C,R12*%
X206356250Y-94667500D03*
X206356250Y-92667500D03*
%TD*%
D25*
%TO.C,D1*%
X237400000Y-121500000D03*
X235350000Y-121500000D03*
%TD*%
D17*
%TO.C,R31*%
X224400000Y-59400000D03*
X226400000Y-59400000D03*
%TD*%
D12*
%TO.C,C7*%
X182015000Y-96530000D03*
X184090000Y-96530000D03*
%TD*%
D15*
%TO.C,JP3*%
X223300000Y-96100000D03*
X222000000Y-96100000D03*
X220700000Y-96100000D03*
%TD*%
D12*
%TO.C,C13*%
X237562500Y-93600000D03*
X239637500Y-93600000D03*
%TD*%
D23*
%TO.C,C38*%
X214137500Y-70850000D03*
X214137500Y-68950000D03*
%TD*%
D26*
%TO.C,C37*%
X227150000Y-76500000D03*
X229050000Y-76500000D03*
%TD*%
D12*
%TO.C,C14*%
X237325000Y-100500000D03*
X239400000Y-100500000D03*
%TD*%
D27*
%TO.C,C27*%
X177437500Y-71800000D03*
X181037500Y-71800000D03*
%TD*%
D26*
%TO.C,C32*%
X227150000Y-78700000D03*
X229050000Y-78700000D03*
%TD*%
D13*
%TO.C,C19*%
X224250000Y-114037500D03*
X224250000Y-111962500D03*
%TD*%
D17*
%TO.C,R19*%
X210400000Y-104090000D03*
X212400000Y-104090000D03*
%TD*%
D28*
%TO.C,C28*%
X186537500Y-71800000D03*
X184462500Y-71800000D03*
%TD*%
D29*
%TO.C,C5*%
X205725000Y-54512500D03*
X205725000Y-56587500D03*
%TD*%
D24*
%TO.C,R21*%
X227125000Y-102995000D03*
X227125000Y-100995000D03*
%TD*%
D16*
%TO.C,D4*%
X215500000Y-84200000D03*
X212700000Y-84200000D03*
%TD*%
D12*
%TO.C,C11*%
X203381250Y-90667500D03*
X205456250Y-90667500D03*
%TD*%
D11*
%TO.C,R29*%
X233200000Y-75300000D03*
X233200000Y-77300000D03*
%TD*%
D19*
%TO.C,R30*%
X221800000Y-59400000D03*
X219800000Y-59400000D03*
%TD*%
D12*
%TO.C,C10*%
X204481250Y-97267500D03*
X206556250Y-97267500D03*
%TD*%
%TO.C,C2*%
X190537500Y-107800000D03*
X192612500Y-107800000D03*
%TD*%
D29*
%TO.C,C6*%
X192700000Y-93762500D03*
X192700000Y-95837500D03*
%TD*%
D24*
%TO.C,R22*%
X213800000Y-110400000D03*
X213800000Y-108400000D03*
%TD*%
D28*
%TO.C,C16*%
X233965000Y-104890000D03*
X231890000Y-104890000D03*
%TD*%
D11*
%TO.C,R10*%
X194900000Y-95900000D03*
X194900000Y-97900000D03*
%TD*%
D30*
%TO.C,U9*%
X186542500Y-64125000D03*
X185272500Y-64125000D03*
X184002500Y-64125000D03*
X182732500Y-64125000D03*
X182732500Y-69075000D03*
X184002500Y-69075000D03*
X185272500Y-69075000D03*
X186542500Y-69075000D03*
%TD*%
D31*
%TO.C,D6*%
X217700000Y-84400000D03*
X217700000Y-81600000D03*
%TD*%
D32*
%TO.C,J2*%
X198500000Y-120300000D03*
%TD*%
D12*
%TO.C,C15*%
X227250000Y-112695000D03*
X229325000Y-112695000D03*
%TD*%
D28*
%TO.C,C12*%
X232900000Y-99600000D03*
X230825000Y-99600000D03*
%TD*%
D24*
%TO.C,R20*%
X224925000Y-106895000D03*
X224925000Y-104895000D03*
%TD*%
D19*
%TO.C,R4*%
X215600000Y-92500000D03*
X213600000Y-92500000D03*
%TD*%
D12*
%TO.C,C18*%
X216700000Y-107500000D03*
X218775000Y-107500000D03*
%TD*%
D17*
%TO.C,R8*%
X184990000Y-83330000D03*
X186990000Y-83330000D03*
%TD*%
D23*
%TO.C,C29*%
X205300000Y-70682500D03*
X205300000Y-68782500D03*
%TD*%
D15*
%TO.C,JP4*%
X215000000Y-95100000D03*
X213700000Y-95100000D03*
X212400000Y-95100000D03*
%TD*%
D19*
%TO.C,R16*%
X215600000Y-90500000D03*
X213600000Y-90500000D03*
%TD*%
D33*
%TO.C,D3*%
X216537500Y-64400000D03*
X214662500Y-64400000D03*
%TD*%
D34*
%TO.C,U4*%
X227585000Y-106895000D03*
X227585000Y-108165000D03*
X227585000Y-109435000D03*
X227585000Y-110705000D03*
X232525000Y-110705000D03*
X232525000Y-109435000D03*
X232525000Y-108165000D03*
X232525000Y-106895000D03*
%TD*%
D26*
%TO.C,C34*%
X225550000Y-70410000D03*
X227450000Y-70410000D03*
%TD*%
D14*
%TO.C,C35*%
X224300000Y-80750000D03*
X224300000Y-82650000D03*
%TD*%
D19*
%TO.C,R15*%
X235600000Y-92950000D03*
X233600000Y-92950000D03*
%TD*%
D16*
%TO.C,D7*%
X215500000Y-80900000D03*
X212700000Y-80900000D03*
%TD*%
D17*
%TO.C,R23*%
X217050000Y-111000000D03*
X219050000Y-111000000D03*
%TD*%
D11*
%TO.C,R1*%
X215337500Y-59340000D03*
X215337500Y-61340000D03*
%TD*%
D29*
%TO.C,C9*%
X200206250Y-92530000D03*
X200206250Y-94605000D03*
%TD*%
D35*
%TO.C,J6*%
X216760000Y-56300000D03*
D36*
X219300000Y-56300000D03*
X221840000Y-56300000D03*
X224380000Y-56300000D03*
%TD*%
D37*
%TO.C,J3*%
X237237500Y-76100000D03*
X237237500Y-70320000D03*
D38*
X236162500Y-76410000D03*
X236162500Y-75610000D03*
D39*
X236162500Y-74460000D03*
X236162500Y-73460000D03*
X236162500Y-72960000D03*
X236162500Y-71960000D03*
D38*
X236162500Y-70010000D03*
X236162500Y-70810000D03*
D39*
X236162500Y-71460000D03*
X236162500Y-72460000D03*
X236162500Y-73960000D03*
X236162500Y-74960000D03*
D40*
X236737500Y-78320000D03*
X236737500Y-68100000D03*
X240667500Y-78320000D03*
X240667500Y-68100000D03*
%TD*%
D23*
%TO.C,C33*%
X217500000Y-68250000D03*
X217500000Y-66350000D03*
%TD*%
D41*
%TO.C,U1*%
X182080000Y-86120000D03*
D42*
X182080000Y-88660000D03*
X182080000Y-91200000D03*
X182080000Y-93740000D03*
X189700000Y-93740000D03*
X189700000Y-91200000D03*
X189700000Y-88660000D03*
X189700000Y-86120000D03*
%TD*%
D43*
%TO.C,U11*%
X216637500Y-71960000D03*
X216637500Y-72460000D03*
X216637500Y-72960000D03*
X216637500Y-73460000D03*
X216637500Y-73960000D03*
X216637500Y-74460000D03*
X216637500Y-74960000D03*
X216637500Y-75460000D03*
X216637500Y-75960000D03*
X216637500Y-76460000D03*
X216637500Y-76960000D03*
X216637500Y-77460000D03*
D44*
X218050000Y-78872500D03*
X218550000Y-78872500D03*
X219050000Y-78872500D03*
X219550000Y-78872500D03*
X220050000Y-78872500D03*
X220550000Y-78872500D03*
X221050000Y-78872500D03*
X221550000Y-78872500D03*
X222050000Y-78872500D03*
X222550000Y-78872500D03*
X223050000Y-78872500D03*
X223550000Y-78872500D03*
D43*
X224962500Y-77460000D03*
X224962500Y-76960000D03*
X224962500Y-76460000D03*
X224962500Y-75960000D03*
X224962500Y-75460000D03*
X224962500Y-74960000D03*
X224962500Y-74460000D03*
X224962500Y-73960000D03*
X224962500Y-73460000D03*
X224962500Y-72960000D03*
X224962500Y-72460000D03*
X224962500Y-71960000D03*
D44*
X223550000Y-70547500D03*
X223050000Y-70547500D03*
X222550000Y-70547500D03*
X222050000Y-70547500D03*
X221550000Y-70547500D03*
X221050000Y-70547500D03*
X220550000Y-70547500D03*
X220050000Y-70547500D03*
X219550000Y-70547500D03*
X219050000Y-70547500D03*
X218550000Y-70547500D03*
X218050000Y-70547500D03*
%TD*%
D45*
%TO.C,J5*%
X188037500Y-53700000D03*
D46*
X193037500Y-53700000D03*
%TD*%
D12*
%TO.C,C1*%
X200287500Y-52350000D03*
X202362500Y-52350000D03*
%TD*%
D14*
%TO.C,C31*%
X205300000Y-76432500D03*
X205300000Y-78332500D03*
%TD*%
D47*
%TO.C,U7*%
X200537500Y-54500000D03*
X200537500Y-55450000D03*
X200537500Y-56400000D03*
X203237500Y-56400000D03*
X203237500Y-54500000D03*
%TD*%
D11*
%TO.C,R27*%
X233100000Y-119575000D03*
X233100000Y-121575000D03*
%TD*%
D48*
%TO.C,U10*%
X194850000Y-62450000D03*
X194850000Y-61500000D03*
X194850000Y-60550000D03*
X192150000Y-60550000D03*
X192150000Y-62450000D03*
%TD*%
D11*
%TO.C,R2*%
X222000000Y-91700000D03*
X222000000Y-93700000D03*
%TD*%
D49*
%TO.C,U5*%
X216700000Y-112895000D03*
X216700000Y-114165000D03*
X216700000Y-115435000D03*
X216700000Y-116705000D03*
X221650000Y-116705000D03*
X221650000Y-115435000D03*
X221650000Y-114165000D03*
X221650000Y-112895000D03*
%TD*%
D14*
%TO.C,C40*%
X213200000Y-56050000D03*
X213200000Y-57950000D03*
%TD*%
D19*
%TO.C,R9*%
X189790000Y-96330000D03*
X187790000Y-96330000D03*
%TD*%
D11*
%TO.C,R26*%
X233100000Y-83500000D03*
X233100000Y-85500000D03*
%TD*%
D15*
%TO.C,JP5*%
X203856250Y-88167500D03*
X205156250Y-88167500D03*
%TD*%
D49*
%TO.C,U6*%
X216425000Y-101495000D03*
X216425000Y-102765000D03*
X216425000Y-104035000D03*
X216425000Y-105305000D03*
X221375000Y-105305000D03*
X221375000Y-104035000D03*
X221375000Y-102765000D03*
X221375000Y-101495000D03*
%TD*%
D29*
%TO.C,C4*%
X217900000Y-90425000D03*
X217900000Y-92500000D03*
%TD*%
D50*
%TO.C,U8*%
X191800000Y-66800000D03*
X190850000Y-66800000D03*
X189900000Y-66800000D03*
X189900000Y-69500000D03*
X191800000Y-69500000D03*
%TD*%
D13*
%TO.C,C21*%
X223975000Y-102537500D03*
X223975000Y-100462500D03*
%TD*%
D22*
%TO.C,JP6*%
X229625000Y-97500000D03*
X229625000Y-96200000D03*
%TD*%
D32*
%TO.C,J1*%
X184000000Y-120300000D03*
%TD*%
D17*
%TO.C,R18*%
X210400000Y-115500000D03*
X212400000Y-115500000D03*
%TD*%
D11*
%TO.C,R14*%
X239100000Y-95800000D03*
X239100000Y-97800000D03*
%TD*%
D12*
%TO.C,C3*%
X224125000Y-91700000D03*
X226200000Y-91700000D03*
%TD*%
D17*
%TO.C,R11*%
X194756250Y-92767500D03*
X196756250Y-92767500D03*
%TD*%
D24*
%TO.C,R17*%
X237500000Y-104550000D03*
X237500000Y-102550000D03*
%TD*%
D51*
%TO.C,J4*%
X238800000Y-61370000D03*
D52*
X237530000Y-61370000D03*
X238800000Y-60100000D03*
X237530000Y-60100000D03*
X238800000Y-58830000D03*
X237530000Y-58830000D03*
X238800000Y-57560000D03*
X237530000Y-57560000D03*
X238800000Y-56290000D03*
X237530000Y-56290000D03*
%TD*%
D24*
%TO.C,R13*%
X202356250Y-99167500D03*
X202356250Y-97167500D03*
%TD*%
D19*
%TO.C,R6*%
X190100000Y-99700000D03*
X188100000Y-99700000D03*
%TD*%
D24*
%TO.C,R28*%
X233200000Y-71100000D03*
X233200000Y-69100000D03*
%TD*%
D53*
%TO.C,U3*%
X234562500Y-96000000D03*
X234562500Y-96950000D03*
X234562500Y-97900000D03*
X236837500Y-97900000D03*
X236837500Y-96000000D03*
%TD*%
D25*
%TO.C,D2*%
X237400000Y-85400000D03*
X235350000Y-85400000D03*
%TD*%
D12*
%TO.C,C23*%
X191825000Y-72050000D03*
X193900000Y-72050000D03*
%TD*%
D17*
%TO.C,R25*%
X205200000Y-74400000D03*
X207200000Y-74400000D03*
%TD*%
D29*
%TO.C,C22*%
X194000000Y-66622500D03*
X194000000Y-68697500D03*
%TD*%
D12*
%TO.C,C17*%
X227150000Y-104995000D03*
X229225000Y-104995000D03*
%TD*%
D54*
%TO.C,U12*%
X228100000Y-72672500D03*
D55*
X228025000Y-73210000D03*
D54*
X228100000Y-73747500D03*
X229800000Y-73747500D03*
D55*
X229875000Y-73210000D03*
D54*
X229800000Y-72672500D03*
%TD*%
M02*
