%TF.GenerationSoftware,KiCad,Pcbnew,9.0.2*%
%TF.CreationDate,2025-11-12T20:00:32+01:00*%
%TF.ProjectId,precise_ammeter,70726563-6973-4655-9f61-6d6d65746572,rev?*%
%TF.SameCoordinates,Original*%
%TF.FileFunction,Legend,Bot*%
%TF.FilePolarity,Positive*%
%FSLAX46Y46*%
G04 Gerber Fmt 4.6, Leading zero omitted, Abs format (unit mm)*
G04 Created by KiCad (PCBNEW 9.0.2) date 2025-11-12 20:00:32*
%MOMM*%
%LPD*%
G01*
G04 APERTURE LIST*
%ADD10C,0.200000*%
%ADD11C,0.100000*%
G04 APERTURE END LIST*
D10*
X195982707Y-75142742D02*
X195982707Y-73942742D01*
X195982707Y-74514171D02*
X195296993Y-74514171D01*
X195296993Y-75142742D02*
X195296993Y-73942742D01*
X194725564Y-75142742D02*
X194725564Y-74342742D01*
X194725564Y-73942742D02*
X194782707Y-73999885D01*
X194782707Y-73999885D02*
X194725564Y-74057028D01*
X194725564Y-74057028D02*
X194668421Y-73999885D01*
X194668421Y-73999885D02*
X194725564Y-73942742D01*
X194725564Y-73942742D02*
X194725564Y-74057028D01*
X193639850Y-74342742D02*
X193639850Y-75314171D01*
X193639850Y-75314171D02*
X193696992Y-75428457D01*
X193696992Y-75428457D02*
X193754135Y-75485600D01*
X193754135Y-75485600D02*
X193868421Y-75542742D01*
X193868421Y-75542742D02*
X194039850Y-75542742D01*
X194039850Y-75542742D02*
X194154135Y-75485600D01*
X193639850Y-75085600D02*
X193754135Y-75142742D01*
X193754135Y-75142742D02*
X193982707Y-75142742D01*
X193982707Y-75142742D02*
X194096992Y-75085600D01*
X194096992Y-75085600D02*
X194154135Y-75028457D01*
X194154135Y-75028457D02*
X194211278Y-74914171D01*
X194211278Y-74914171D02*
X194211278Y-74571314D01*
X194211278Y-74571314D02*
X194154135Y-74457028D01*
X194154135Y-74457028D02*
X194096992Y-74399885D01*
X194096992Y-74399885D02*
X193982707Y-74342742D01*
X193982707Y-74342742D02*
X193754135Y-74342742D01*
X193754135Y-74342742D02*
X193639850Y-74399885D01*
X193068421Y-75142742D02*
X193068421Y-73942742D01*
X192554136Y-75142742D02*
X192554136Y-74514171D01*
X192554136Y-74514171D02*
X192611278Y-74399885D01*
X192611278Y-74399885D02*
X192725564Y-74342742D01*
X192725564Y-74342742D02*
X192896993Y-74342742D01*
X192896993Y-74342742D02*
X193011278Y-74399885D01*
X193011278Y-74399885D02*
X193068421Y-74457028D01*
X191068421Y-75142742D02*
X191068421Y-74342742D01*
X191068421Y-74571314D02*
X191011278Y-74457028D01*
X191011278Y-74457028D02*
X190954136Y-74399885D01*
X190954136Y-74399885D02*
X190839850Y-74342742D01*
X190839850Y-74342742D02*
X190725564Y-74342742D01*
X189868421Y-75085600D02*
X189982707Y-75142742D01*
X189982707Y-75142742D02*
X190211279Y-75142742D01*
X190211279Y-75142742D02*
X190325564Y-75085600D01*
X190325564Y-75085600D02*
X190382707Y-74971314D01*
X190382707Y-74971314D02*
X190382707Y-74514171D01*
X190382707Y-74514171D02*
X190325564Y-74399885D01*
X190325564Y-74399885D02*
X190211279Y-74342742D01*
X190211279Y-74342742D02*
X189982707Y-74342742D01*
X189982707Y-74342742D02*
X189868421Y-74399885D01*
X189868421Y-74399885D02*
X189811279Y-74514171D01*
X189811279Y-74514171D02*
X189811279Y-74628457D01*
X189811279Y-74628457D02*
X190382707Y-74742742D01*
X189354136Y-75085600D02*
X189239850Y-75142742D01*
X189239850Y-75142742D02*
X189011279Y-75142742D01*
X189011279Y-75142742D02*
X188896993Y-75085600D01*
X188896993Y-75085600D02*
X188839850Y-74971314D01*
X188839850Y-74971314D02*
X188839850Y-74914171D01*
X188839850Y-74914171D02*
X188896993Y-74799885D01*
X188896993Y-74799885D02*
X189011279Y-74742742D01*
X189011279Y-74742742D02*
X189182708Y-74742742D01*
X189182708Y-74742742D02*
X189296993Y-74685600D01*
X189296993Y-74685600D02*
X189354136Y-74571314D01*
X189354136Y-74571314D02*
X189354136Y-74514171D01*
X189354136Y-74514171D02*
X189296993Y-74399885D01*
X189296993Y-74399885D02*
X189182708Y-74342742D01*
X189182708Y-74342742D02*
X189011279Y-74342742D01*
X189011279Y-74342742D02*
X188896993Y-74399885D01*
X188325564Y-75028457D02*
X188268421Y-75085600D01*
X188268421Y-75085600D02*
X188325564Y-75142742D01*
X188325564Y-75142742D02*
X188382707Y-75085600D01*
X188382707Y-75085600D02*
X188325564Y-75028457D01*
X188325564Y-75028457D02*
X188325564Y-75142742D01*
X186325564Y-75142742D02*
X186325564Y-74514171D01*
X186325564Y-74514171D02*
X186382706Y-74399885D01*
X186382706Y-74399885D02*
X186496992Y-74342742D01*
X186496992Y-74342742D02*
X186725564Y-74342742D01*
X186725564Y-74342742D02*
X186839849Y-74399885D01*
X186325564Y-75085600D02*
X186439849Y-75142742D01*
X186439849Y-75142742D02*
X186725564Y-75142742D01*
X186725564Y-75142742D02*
X186839849Y-75085600D01*
X186839849Y-75085600D02*
X186896992Y-74971314D01*
X186896992Y-74971314D02*
X186896992Y-74857028D01*
X186896992Y-74857028D02*
X186839849Y-74742742D01*
X186839849Y-74742742D02*
X186725564Y-74685600D01*
X186725564Y-74685600D02*
X186439849Y-74685600D01*
X186439849Y-74685600D02*
X186325564Y-74628457D01*
X185754135Y-75142742D02*
X185754135Y-74342742D01*
X185754135Y-74457028D02*
X185696992Y-74399885D01*
X185696992Y-74399885D02*
X185582707Y-74342742D01*
X185582707Y-74342742D02*
X185411278Y-74342742D01*
X185411278Y-74342742D02*
X185296992Y-74399885D01*
X185296992Y-74399885D02*
X185239850Y-74514171D01*
X185239850Y-74514171D02*
X185239850Y-75142742D01*
X185239850Y-74514171D02*
X185182707Y-74399885D01*
X185182707Y-74399885D02*
X185068421Y-74342742D01*
X185068421Y-74342742D02*
X184896992Y-74342742D01*
X184896992Y-74342742D02*
X184782707Y-74399885D01*
X184782707Y-74399885D02*
X184725564Y-74514171D01*
X184725564Y-74514171D02*
X184725564Y-75142742D01*
X184154135Y-75142742D02*
X184154135Y-74342742D01*
X184154135Y-74457028D02*
X184096992Y-74399885D01*
X184096992Y-74399885D02*
X183982707Y-74342742D01*
X183982707Y-74342742D02*
X183811278Y-74342742D01*
X183811278Y-74342742D02*
X183696992Y-74399885D01*
X183696992Y-74399885D02*
X183639850Y-74514171D01*
X183639850Y-74514171D02*
X183639850Y-75142742D01*
X183639850Y-74514171D02*
X183582707Y-74399885D01*
X183582707Y-74399885D02*
X183468421Y-74342742D01*
X183468421Y-74342742D02*
X183296992Y-74342742D01*
X183296992Y-74342742D02*
X183182707Y-74399885D01*
X183182707Y-74399885D02*
X183125564Y-74514171D01*
X183125564Y-74514171D02*
X183125564Y-75142742D01*
X182096992Y-75085600D02*
X182211278Y-75142742D01*
X182211278Y-75142742D02*
X182439850Y-75142742D01*
X182439850Y-75142742D02*
X182554135Y-75085600D01*
X182554135Y-75085600D02*
X182611278Y-74971314D01*
X182611278Y-74971314D02*
X182611278Y-74514171D01*
X182611278Y-74514171D02*
X182554135Y-74399885D01*
X182554135Y-74399885D02*
X182439850Y-74342742D01*
X182439850Y-74342742D02*
X182211278Y-74342742D01*
X182211278Y-74342742D02*
X182096992Y-74399885D01*
X182096992Y-74399885D02*
X182039850Y-74514171D01*
X182039850Y-74514171D02*
X182039850Y-74628457D01*
X182039850Y-74628457D02*
X182611278Y-74742742D01*
X181696993Y-74342742D02*
X181239850Y-74342742D01*
X181525564Y-73942742D02*
X181525564Y-74971314D01*
X181525564Y-74971314D02*
X181468421Y-75085600D01*
X181468421Y-75085600D02*
X181354136Y-75142742D01*
X181354136Y-75142742D02*
X181239850Y-75142742D01*
X180382707Y-75085600D02*
X180496993Y-75142742D01*
X180496993Y-75142742D02*
X180725565Y-75142742D01*
X180725565Y-75142742D02*
X180839850Y-75085600D01*
X180839850Y-75085600D02*
X180896993Y-74971314D01*
X180896993Y-74971314D02*
X180896993Y-74514171D01*
X180896993Y-74514171D02*
X180839850Y-74399885D01*
X180839850Y-74399885D02*
X180725565Y-74342742D01*
X180725565Y-74342742D02*
X180496993Y-74342742D01*
X180496993Y-74342742D02*
X180382707Y-74399885D01*
X180382707Y-74399885D02*
X180325565Y-74514171D01*
X180325565Y-74514171D02*
X180325565Y-74628457D01*
X180325565Y-74628457D02*
X180896993Y-74742742D01*
X179811279Y-75142742D02*
X179811279Y-74342742D01*
X179811279Y-74571314D02*
X179754136Y-74457028D01*
X179754136Y-74457028D02*
X179696994Y-74399885D01*
X179696994Y-74399885D02*
X179582708Y-74342742D01*
X179582708Y-74342742D02*
X179468422Y-74342742D01*
X224030326Y-120627443D02*
X224030326Y-119627443D01*
X224030326Y-119627443D02*
X223792231Y-119627443D01*
X223792231Y-119627443D02*
X223649374Y-119675062D01*
X223649374Y-119675062D02*
X223554136Y-119770300D01*
X223554136Y-119770300D02*
X223506517Y-119865538D01*
X223506517Y-119865538D02*
X223458898Y-120056014D01*
X223458898Y-120056014D02*
X223458898Y-120198871D01*
X223458898Y-120198871D02*
X223506517Y-120389347D01*
X223506517Y-120389347D02*
X223554136Y-120484585D01*
X223554136Y-120484585D02*
X223649374Y-120579824D01*
X223649374Y-120579824D02*
X223792231Y-120627443D01*
X223792231Y-120627443D02*
X224030326Y-120627443D01*
X222649374Y-120579824D02*
X222744612Y-120627443D01*
X222744612Y-120627443D02*
X222935088Y-120627443D01*
X222935088Y-120627443D02*
X223030326Y-120579824D01*
X223030326Y-120579824D02*
X223077945Y-120484585D01*
X223077945Y-120484585D02*
X223077945Y-120103633D01*
X223077945Y-120103633D02*
X223030326Y-120008395D01*
X223030326Y-120008395D02*
X222935088Y-119960776D01*
X222935088Y-119960776D02*
X222744612Y-119960776D01*
X222744612Y-119960776D02*
X222649374Y-120008395D01*
X222649374Y-120008395D02*
X222601755Y-120103633D01*
X222601755Y-120103633D02*
X222601755Y-120198871D01*
X222601755Y-120198871D02*
X223077945Y-120294109D01*
X222220802Y-120579824D02*
X222125564Y-120627443D01*
X222125564Y-120627443D02*
X221935088Y-120627443D01*
X221935088Y-120627443D02*
X221839850Y-120579824D01*
X221839850Y-120579824D02*
X221792231Y-120484585D01*
X221792231Y-120484585D02*
X221792231Y-120436966D01*
X221792231Y-120436966D02*
X221839850Y-120341728D01*
X221839850Y-120341728D02*
X221935088Y-120294109D01*
X221935088Y-120294109D02*
X222077945Y-120294109D01*
X222077945Y-120294109D02*
X222173183Y-120246490D01*
X222173183Y-120246490D02*
X222220802Y-120151252D01*
X222220802Y-120151252D02*
X222220802Y-120103633D01*
X222220802Y-120103633D02*
X222173183Y-120008395D01*
X222173183Y-120008395D02*
X222077945Y-119960776D01*
X222077945Y-119960776D02*
X221935088Y-119960776D01*
X221935088Y-119960776D02*
X221839850Y-120008395D01*
X221363659Y-120627443D02*
X221363659Y-119960776D01*
X221363659Y-119627443D02*
X221411278Y-119675062D01*
X221411278Y-119675062D02*
X221363659Y-119722681D01*
X221363659Y-119722681D02*
X221316040Y-119675062D01*
X221316040Y-119675062D02*
X221363659Y-119627443D01*
X221363659Y-119627443D02*
X221363659Y-119722681D01*
X220458898Y-119960776D02*
X220458898Y-120770300D01*
X220458898Y-120770300D02*
X220506517Y-120865538D01*
X220506517Y-120865538D02*
X220554136Y-120913157D01*
X220554136Y-120913157D02*
X220649374Y-120960776D01*
X220649374Y-120960776D02*
X220792231Y-120960776D01*
X220792231Y-120960776D02*
X220887469Y-120913157D01*
X220458898Y-120579824D02*
X220554136Y-120627443D01*
X220554136Y-120627443D02*
X220744612Y-120627443D01*
X220744612Y-120627443D02*
X220839850Y-120579824D01*
X220839850Y-120579824D02*
X220887469Y-120532204D01*
X220887469Y-120532204D02*
X220935088Y-120436966D01*
X220935088Y-120436966D02*
X220935088Y-120151252D01*
X220935088Y-120151252D02*
X220887469Y-120056014D01*
X220887469Y-120056014D02*
X220839850Y-120008395D01*
X220839850Y-120008395D02*
X220744612Y-119960776D01*
X220744612Y-119960776D02*
X220554136Y-119960776D01*
X220554136Y-119960776D02*
X220458898Y-120008395D01*
X219982707Y-119960776D02*
X219982707Y-120627443D01*
X219982707Y-120056014D02*
X219935088Y-120008395D01*
X219935088Y-120008395D02*
X219839850Y-119960776D01*
X219839850Y-119960776D02*
X219696993Y-119960776D01*
X219696993Y-119960776D02*
X219601755Y-120008395D01*
X219601755Y-120008395D02*
X219554136Y-120103633D01*
X219554136Y-120103633D02*
X219554136Y-120627443D01*
X218696993Y-120579824D02*
X218792231Y-120627443D01*
X218792231Y-120627443D02*
X218982707Y-120627443D01*
X218982707Y-120627443D02*
X219077945Y-120579824D01*
X219077945Y-120579824D02*
X219125564Y-120484585D01*
X219125564Y-120484585D02*
X219125564Y-120103633D01*
X219125564Y-120103633D02*
X219077945Y-120008395D01*
X219077945Y-120008395D02*
X218982707Y-119960776D01*
X218982707Y-119960776D02*
X218792231Y-119960776D01*
X218792231Y-119960776D02*
X218696993Y-120008395D01*
X218696993Y-120008395D02*
X218649374Y-120103633D01*
X218649374Y-120103633D02*
X218649374Y-120198871D01*
X218649374Y-120198871D02*
X219125564Y-120294109D01*
X217792231Y-120627443D02*
X217792231Y-119627443D01*
X217792231Y-120579824D02*
X217887469Y-120627443D01*
X217887469Y-120627443D02*
X218077945Y-120627443D01*
X218077945Y-120627443D02*
X218173183Y-120579824D01*
X218173183Y-120579824D02*
X218220802Y-120532204D01*
X218220802Y-120532204D02*
X218268421Y-120436966D01*
X218268421Y-120436966D02*
X218268421Y-120151252D01*
X218268421Y-120151252D02*
X218220802Y-120056014D01*
X218220802Y-120056014D02*
X218173183Y-120008395D01*
X218173183Y-120008395D02*
X218077945Y-119960776D01*
X218077945Y-119960776D02*
X217887469Y-119960776D01*
X217887469Y-119960776D02*
X217792231Y-120008395D01*
X216554135Y-120627443D02*
X216554135Y-119627443D01*
X216554135Y-120008395D02*
X216458897Y-119960776D01*
X216458897Y-119960776D02*
X216268421Y-119960776D01*
X216268421Y-119960776D02*
X216173183Y-120008395D01*
X216173183Y-120008395D02*
X216125564Y-120056014D01*
X216125564Y-120056014D02*
X216077945Y-120151252D01*
X216077945Y-120151252D02*
X216077945Y-120436966D01*
X216077945Y-120436966D02*
X216125564Y-120532204D01*
X216125564Y-120532204D02*
X216173183Y-120579824D01*
X216173183Y-120579824D02*
X216268421Y-120627443D01*
X216268421Y-120627443D02*
X216458897Y-120627443D01*
X216458897Y-120627443D02*
X216554135Y-120579824D01*
X215744611Y-119960776D02*
X215506516Y-120627443D01*
X215268421Y-119960776D02*
X215506516Y-120627443D01*
X215506516Y-120627443D02*
X215601754Y-120865538D01*
X215601754Y-120865538D02*
X215649373Y-120913157D01*
X215649373Y-120913157D02*
X215744611Y-120960776D01*
X214887468Y-120532204D02*
X214839849Y-120579824D01*
X214839849Y-120579824D02*
X214887468Y-120627443D01*
X214887468Y-120627443D02*
X214935087Y-120579824D01*
X214935087Y-120579824D02*
X214887468Y-120532204D01*
X214887468Y-120532204D02*
X214887468Y-120627443D01*
X214887468Y-120008395D02*
X214839849Y-120056014D01*
X214839849Y-120056014D02*
X214887468Y-120103633D01*
X214887468Y-120103633D02*
X214935087Y-120056014D01*
X214935087Y-120056014D02*
X214887468Y-120008395D01*
X214887468Y-120008395D02*
X214887468Y-120103633D01*
X223696993Y-121713577D02*
X224030326Y-121713577D01*
X224030326Y-122237387D02*
X224030326Y-121237387D01*
X224030326Y-121237387D02*
X223554136Y-121237387D01*
X223173183Y-122237387D02*
X223173183Y-121570720D01*
X223173183Y-121237387D02*
X223220802Y-121285006D01*
X223220802Y-121285006D02*
X223173183Y-121332625D01*
X223173183Y-121332625D02*
X223125564Y-121285006D01*
X223125564Y-121285006D02*
X223173183Y-121237387D01*
X223173183Y-121237387D02*
X223173183Y-121332625D01*
X222554136Y-122237387D02*
X222649374Y-122189768D01*
X222649374Y-122189768D02*
X222696993Y-122094529D01*
X222696993Y-122094529D02*
X222696993Y-121237387D01*
X222173183Y-122237387D02*
X222173183Y-121570720D01*
X222173183Y-121237387D02*
X222220802Y-121285006D01*
X222220802Y-121285006D02*
X222173183Y-121332625D01*
X222173183Y-121332625D02*
X222125564Y-121285006D01*
X222125564Y-121285006D02*
X222173183Y-121237387D01*
X222173183Y-121237387D02*
X222173183Y-121332625D01*
X221696993Y-121570720D02*
X221696993Y-122570720D01*
X221696993Y-121618339D02*
X221601755Y-121570720D01*
X221601755Y-121570720D02*
X221411279Y-121570720D01*
X221411279Y-121570720D02*
X221316041Y-121618339D01*
X221316041Y-121618339D02*
X221268422Y-121665958D01*
X221268422Y-121665958D02*
X221220803Y-121761196D01*
X221220803Y-121761196D02*
X221220803Y-122046910D01*
X221220803Y-122046910D02*
X221268422Y-122142148D01*
X221268422Y-122142148D02*
X221316041Y-122189768D01*
X221316041Y-122189768D02*
X221411279Y-122237387D01*
X221411279Y-122237387D02*
X221601755Y-122237387D01*
X221601755Y-122237387D02*
X221696993Y-122189768D01*
X220030326Y-122237387D02*
X220030326Y-121237387D01*
X219458898Y-122237387D02*
X219887469Y-121665958D01*
X219458898Y-121237387D02*
X220030326Y-121808815D01*
X218601755Y-121570720D02*
X218601755Y-122237387D01*
X219030326Y-121570720D02*
X219030326Y-122094529D01*
X219030326Y-122094529D02*
X218982707Y-122189768D01*
X218982707Y-122189768D02*
X218887469Y-122237387D01*
X218887469Y-122237387D02*
X218744612Y-122237387D01*
X218744612Y-122237387D02*
X218649374Y-122189768D01*
X218649374Y-122189768D02*
X218601755Y-122142148D01*
X217982707Y-122237387D02*
X218077945Y-122189768D01*
X218077945Y-122189768D02*
X218125564Y-122094529D01*
X218125564Y-122094529D02*
X218125564Y-121237387D01*
X217601754Y-122237387D02*
X217601754Y-121237387D01*
X217506516Y-121856434D02*
X217220802Y-122237387D01*
X217220802Y-121570720D02*
X217601754Y-121951672D01*
X216363659Y-122237387D02*
X216363659Y-121713577D01*
X216363659Y-121713577D02*
X216411278Y-121618339D01*
X216411278Y-121618339D02*
X216506516Y-121570720D01*
X216506516Y-121570720D02*
X216696992Y-121570720D01*
X216696992Y-121570720D02*
X216792230Y-121618339D01*
X216363659Y-122189768D02*
X216458897Y-122237387D01*
X216458897Y-122237387D02*
X216696992Y-122237387D01*
X216696992Y-122237387D02*
X216792230Y-122189768D01*
X216792230Y-122189768D02*
X216839849Y-122094529D01*
X216839849Y-122094529D02*
X216839849Y-121999291D01*
X216839849Y-121999291D02*
X216792230Y-121904053D01*
X216792230Y-121904053D02*
X216696992Y-121856434D01*
X216696992Y-121856434D02*
X216458897Y-121856434D01*
X216458897Y-121856434D02*
X216363659Y-121808815D01*
X224030326Y-123847331D02*
X224030326Y-122847331D01*
X223458898Y-123847331D02*
X223887469Y-123275902D01*
X223458898Y-122847331D02*
X224030326Y-123418759D01*
X223030326Y-123847331D02*
X223030326Y-123180664D01*
X223030326Y-123371140D02*
X222982707Y-123275902D01*
X222982707Y-123275902D02*
X222935088Y-123228283D01*
X222935088Y-123228283D02*
X222839850Y-123180664D01*
X222839850Y-123180664D02*
X222744612Y-123180664D01*
X222506516Y-123180664D02*
X221982707Y-123180664D01*
X221982707Y-123180664D02*
X222506516Y-123847331D01*
X222506516Y-123847331D02*
X221982707Y-123847331D01*
X221696992Y-123180664D02*
X221458897Y-123847331D01*
X221220802Y-123180664D02*
X221458897Y-123847331D01*
X221458897Y-123847331D02*
X221554135Y-124085426D01*
X221554135Y-124085426D02*
X221601754Y-124133045D01*
X221601754Y-124133045D02*
X221696992Y-124180664D01*
X220887468Y-123799712D02*
X220792230Y-123847331D01*
X220792230Y-123847331D02*
X220601754Y-123847331D01*
X220601754Y-123847331D02*
X220506516Y-123799712D01*
X220506516Y-123799712D02*
X220458897Y-123704473D01*
X220458897Y-123704473D02*
X220458897Y-123656854D01*
X220458897Y-123656854D02*
X220506516Y-123561616D01*
X220506516Y-123561616D02*
X220601754Y-123513997D01*
X220601754Y-123513997D02*
X220744611Y-123513997D01*
X220744611Y-123513997D02*
X220839849Y-123466378D01*
X220839849Y-123466378D02*
X220887468Y-123371140D01*
X220887468Y-123371140D02*
X220887468Y-123323521D01*
X220887468Y-123323521D02*
X220839849Y-123228283D01*
X220839849Y-123228283D02*
X220744611Y-123180664D01*
X220744611Y-123180664D02*
X220601754Y-123180664D01*
X220601754Y-123180664D02*
X220506516Y-123228283D01*
X220125563Y-123180664D02*
X219601754Y-123180664D01*
X219601754Y-123180664D02*
X220125563Y-123847331D01*
X220125563Y-123847331D02*
X219601754Y-123847331D01*
X219363658Y-123180664D02*
X218982706Y-123180664D01*
X219220801Y-122847331D02*
X219220801Y-123704473D01*
X219220801Y-123704473D02*
X219173182Y-123799712D01*
X219173182Y-123799712D02*
X219077944Y-123847331D01*
X219077944Y-123847331D02*
X218982706Y-123847331D01*
X218506515Y-123847331D02*
X218601753Y-123799712D01*
X218601753Y-123799712D02*
X218649372Y-123752092D01*
X218649372Y-123752092D02*
X218696991Y-123656854D01*
X218696991Y-123656854D02*
X218696991Y-123371140D01*
X218696991Y-123371140D02*
X218649372Y-123275902D01*
X218649372Y-123275902D02*
X218601753Y-123228283D01*
X218601753Y-123228283D02*
X218506515Y-123180664D01*
X218506515Y-123180664D02*
X218363658Y-123180664D01*
X218363658Y-123180664D02*
X218268420Y-123228283D01*
X218268420Y-123228283D02*
X218220801Y-123275902D01*
X218220801Y-123275902D02*
X218173182Y-123371140D01*
X218173182Y-123371140D02*
X218173182Y-123656854D01*
X218173182Y-123656854D02*
X218220801Y-123752092D01*
X218220801Y-123752092D02*
X218268420Y-123799712D01*
X218268420Y-123799712D02*
X218363658Y-123847331D01*
X218363658Y-123847331D02*
X218506515Y-123847331D01*
X217887467Y-123180664D02*
X217506515Y-123180664D01*
X217744610Y-123847331D02*
X217744610Y-122990188D01*
X217744610Y-122990188D02*
X217696991Y-122894950D01*
X217696991Y-122894950D02*
X217601753Y-122847331D01*
X217601753Y-122847331D02*
X217506515Y-122847331D01*
X216458895Y-123799712D02*
X216316038Y-123847331D01*
X216316038Y-123847331D02*
X216077943Y-123847331D01*
X216077943Y-123847331D02*
X215982705Y-123799712D01*
X215982705Y-123799712D02*
X215935086Y-123752092D01*
X215935086Y-123752092D02*
X215887467Y-123656854D01*
X215887467Y-123656854D02*
X215887467Y-123561616D01*
X215887467Y-123561616D02*
X215935086Y-123466378D01*
X215935086Y-123466378D02*
X215982705Y-123418759D01*
X215982705Y-123418759D02*
X216077943Y-123371140D01*
X216077943Y-123371140D02*
X216268419Y-123323521D01*
X216268419Y-123323521D02*
X216363657Y-123275902D01*
X216363657Y-123275902D02*
X216411276Y-123228283D01*
X216411276Y-123228283D02*
X216458895Y-123133045D01*
X216458895Y-123133045D02*
X216458895Y-123037807D01*
X216458895Y-123037807D02*
X216411276Y-122942569D01*
X216411276Y-122942569D02*
X216363657Y-122894950D01*
X216363657Y-122894950D02*
X216268419Y-122847331D01*
X216268419Y-122847331D02*
X216030324Y-122847331D01*
X216030324Y-122847331D02*
X215887467Y-122894950D01*
X215458895Y-123847331D02*
X215458895Y-123180664D01*
X215458895Y-122847331D02*
X215506514Y-122894950D01*
X215506514Y-122894950D02*
X215458895Y-122942569D01*
X215458895Y-122942569D02*
X215411276Y-122894950D01*
X215411276Y-122894950D02*
X215458895Y-122847331D01*
X215458895Y-122847331D02*
X215458895Y-122942569D01*
X214982705Y-123847331D02*
X214982705Y-122847331D01*
X214887467Y-123466378D02*
X214601753Y-123847331D01*
X214601753Y-123180664D02*
X214982705Y-123561616D01*
X214030324Y-123847331D02*
X214125562Y-123799712D01*
X214125562Y-123799712D02*
X214173181Y-123752092D01*
X214173181Y-123752092D02*
X214220800Y-123656854D01*
X214220800Y-123656854D02*
X214220800Y-123371140D01*
X214220800Y-123371140D02*
X214173181Y-123275902D01*
X214173181Y-123275902D02*
X214125562Y-123228283D01*
X214125562Y-123228283D02*
X214030324Y-123180664D01*
X214030324Y-123180664D02*
X213887467Y-123180664D01*
X213887467Y-123180664D02*
X213792229Y-123228283D01*
X213792229Y-123228283D02*
X213744610Y-123275902D01*
X213744610Y-123275902D02*
X213696991Y-123371140D01*
X213696991Y-123371140D02*
X213696991Y-123656854D01*
X213696991Y-123656854D02*
X213744610Y-123752092D01*
X213744610Y-123752092D02*
X213792229Y-123799712D01*
X213792229Y-123799712D02*
X213887467Y-123847331D01*
X213887467Y-123847331D02*
X214030324Y-123847331D01*
X213268419Y-123847331D02*
X213268419Y-123180664D01*
X213268419Y-123371140D02*
X213220800Y-123275902D01*
X213220800Y-123275902D02*
X213173181Y-123228283D01*
X213173181Y-123228283D02*
X213077943Y-123180664D01*
X213077943Y-123180664D02*
X212982705Y-123180664D01*
X212220800Y-123847331D02*
X212220800Y-123323521D01*
X212220800Y-123323521D02*
X212268419Y-123228283D01*
X212268419Y-123228283D02*
X212363657Y-123180664D01*
X212363657Y-123180664D02*
X212554133Y-123180664D01*
X212554133Y-123180664D02*
X212649371Y-123228283D01*
X212220800Y-123799712D02*
X212316038Y-123847331D01*
X212316038Y-123847331D02*
X212554133Y-123847331D01*
X212554133Y-123847331D02*
X212649371Y-123799712D01*
X212649371Y-123799712D02*
X212696990Y-123704473D01*
X212696990Y-123704473D02*
X212696990Y-123609235D01*
X212696990Y-123609235D02*
X212649371Y-123513997D01*
X212649371Y-123513997D02*
X212554133Y-123466378D01*
X212554133Y-123466378D02*
X212316038Y-123466378D01*
X212316038Y-123466378D02*
X212220800Y-123418759D01*
X224030326Y-125457275D02*
X224030326Y-124457275D01*
X224030326Y-124457275D02*
X223792231Y-124457275D01*
X223792231Y-124457275D02*
X223649374Y-124504894D01*
X223649374Y-124504894D02*
X223554136Y-124600132D01*
X223554136Y-124600132D02*
X223506517Y-124695370D01*
X223506517Y-124695370D02*
X223458898Y-124885846D01*
X223458898Y-124885846D02*
X223458898Y-125028703D01*
X223458898Y-125028703D02*
X223506517Y-125219179D01*
X223506517Y-125219179D02*
X223554136Y-125314417D01*
X223554136Y-125314417D02*
X223649374Y-125409656D01*
X223649374Y-125409656D02*
X223792231Y-125457275D01*
X223792231Y-125457275D02*
X224030326Y-125457275D01*
X222887469Y-125457275D02*
X222982707Y-125409656D01*
X222982707Y-125409656D02*
X223030326Y-125362036D01*
X223030326Y-125362036D02*
X223077945Y-125266798D01*
X223077945Y-125266798D02*
X223077945Y-124981084D01*
X223077945Y-124981084D02*
X223030326Y-124885846D01*
X223030326Y-124885846D02*
X222982707Y-124838227D01*
X222982707Y-124838227D02*
X222887469Y-124790608D01*
X222887469Y-124790608D02*
X222744612Y-124790608D01*
X222744612Y-124790608D02*
X222649374Y-124838227D01*
X222649374Y-124838227D02*
X222601755Y-124885846D01*
X222601755Y-124885846D02*
X222554136Y-124981084D01*
X222554136Y-124981084D02*
X222554136Y-125266798D01*
X222554136Y-125266798D02*
X222601755Y-125362036D01*
X222601755Y-125362036D02*
X222649374Y-125409656D01*
X222649374Y-125409656D02*
X222744612Y-125457275D01*
X222744612Y-125457275D02*
X222887469Y-125457275D01*
X222125564Y-125457275D02*
X222125564Y-124790608D01*
X222125564Y-124885846D02*
X222077945Y-124838227D01*
X222077945Y-124838227D02*
X221982707Y-124790608D01*
X221982707Y-124790608D02*
X221839850Y-124790608D01*
X221839850Y-124790608D02*
X221744612Y-124838227D01*
X221744612Y-124838227D02*
X221696993Y-124933465D01*
X221696993Y-124933465D02*
X221696993Y-125457275D01*
X221696993Y-124933465D02*
X221649374Y-124838227D01*
X221649374Y-124838227D02*
X221554136Y-124790608D01*
X221554136Y-124790608D02*
X221411279Y-124790608D01*
X221411279Y-124790608D02*
X221316040Y-124838227D01*
X221316040Y-124838227D02*
X221268421Y-124933465D01*
X221268421Y-124933465D02*
X221268421Y-125457275D01*
X220792231Y-125457275D02*
X220792231Y-124790608D01*
X220792231Y-124457275D02*
X220839850Y-124504894D01*
X220839850Y-124504894D02*
X220792231Y-124552513D01*
X220792231Y-124552513D02*
X220744612Y-124504894D01*
X220744612Y-124504894D02*
X220792231Y-124457275D01*
X220792231Y-124457275D02*
X220792231Y-124552513D01*
X220316041Y-124790608D02*
X220316041Y-125457275D01*
X220316041Y-124885846D02*
X220268422Y-124838227D01*
X220268422Y-124838227D02*
X220173184Y-124790608D01*
X220173184Y-124790608D02*
X220030327Y-124790608D01*
X220030327Y-124790608D02*
X219935089Y-124838227D01*
X219935089Y-124838227D02*
X219887470Y-124933465D01*
X219887470Y-124933465D02*
X219887470Y-125457275D01*
X219411279Y-125457275D02*
X219411279Y-124790608D01*
X219411279Y-124457275D02*
X219458898Y-124504894D01*
X219458898Y-124504894D02*
X219411279Y-124552513D01*
X219411279Y-124552513D02*
X219363660Y-124504894D01*
X219363660Y-124504894D02*
X219411279Y-124457275D01*
X219411279Y-124457275D02*
X219411279Y-124552513D01*
X218935089Y-125457275D02*
X218935089Y-124457275D01*
X218839851Y-125076322D02*
X218554137Y-125457275D01*
X218554137Y-124790608D02*
X218935089Y-125171560D01*
X217363660Y-125457275D02*
X217363660Y-124457275D01*
X217363660Y-124457275D02*
X217030327Y-125171560D01*
X217030327Y-125171560D02*
X216696994Y-124457275D01*
X216696994Y-124457275D02*
X216696994Y-125457275D01*
X216220803Y-125457275D02*
X216220803Y-124790608D01*
X216220803Y-124457275D02*
X216268422Y-124504894D01*
X216268422Y-124504894D02*
X216220803Y-124552513D01*
X216220803Y-124552513D02*
X216173184Y-124504894D01*
X216173184Y-124504894D02*
X216220803Y-124457275D01*
X216220803Y-124457275D02*
X216220803Y-124552513D01*
X215316042Y-125409656D02*
X215411280Y-125457275D01*
X215411280Y-125457275D02*
X215601756Y-125457275D01*
X215601756Y-125457275D02*
X215696994Y-125409656D01*
X215696994Y-125409656D02*
X215744613Y-125362036D01*
X215744613Y-125362036D02*
X215792232Y-125266798D01*
X215792232Y-125266798D02*
X215792232Y-124981084D01*
X215792232Y-124981084D02*
X215744613Y-124885846D01*
X215744613Y-124885846D02*
X215696994Y-124838227D01*
X215696994Y-124838227D02*
X215601756Y-124790608D01*
X215601756Y-124790608D02*
X215411280Y-124790608D01*
X215411280Y-124790608D02*
X215316042Y-124838227D01*
X214887470Y-125457275D02*
X214887470Y-124457275D01*
X214458899Y-125457275D02*
X214458899Y-124933465D01*
X214458899Y-124933465D02*
X214506518Y-124838227D01*
X214506518Y-124838227D02*
X214601756Y-124790608D01*
X214601756Y-124790608D02*
X214744613Y-124790608D01*
X214744613Y-124790608D02*
X214839851Y-124838227D01*
X214839851Y-124838227D02*
X214887470Y-124885846D01*
X213554137Y-125457275D02*
X213554137Y-124933465D01*
X213554137Y-124933465D02*
X213601756Y-124838227D01*
X213601756Y-124838227D02*
X213696994Y-124790608D01*
X213696994Y-124790608D02*
X213887470Y-124790608D01*
X213887470Y-124790608D02*
X213982708Y-124838227D01*
X213554137Y-125409656D02*
X213649375Y-125457275D01*
X213649375Y-125457275D02*
X213887470Y-125457275D01*
X213887470Y-125457275D02*
X213982708Y-125409656D01*
X213982708Y-125409656D02*
X214030327Y-125314417D01*
X214030327Y-125314417D02*
X214030327Y-125219179D01*
X214030327Y-125219179D02*
X213982708Y-125123941D01*
X213982708Y-125123941D02*
X213887470Y-125076322D01*
X213887470Y-125076322D02*
X213649375Y-125076322D01*
X213649375Y-125076322D02*
X213554137Y-125028703D01*
X212935089Y-125457275D02*
X213030327Y-125409656D01*
X213030327Y-125409656D02*
X213077946Y-125314417D01*
X213077946Y-125314417D02*
X213077946Y-124457275D01*
X212125565Y-125409656D02*
X212220803Y-125457275D01*
X212220803Y-125457275D02*
X212411279Y-125457275D01*
X212411279Y-125457275D02*
X212506517Y-125409656D01*
X212506517Y-125409656D02*
X212554136Y-125362036D01*
X212554136Y-125362036D02*
X212601755Y-125266798D01*
X212601755Y-125266798D02*
X212601755Y-124981084D01*
X212601755Y-124981084D02*
X212554136Y-124885846D01*
X212554136Y-124885846D02*
X212506517Y-124838227D01*
X212506517Y-124838227D02*
X212411279Y-124790608D01*
X212411279Y-124790608D02*
X212220803Y-124790608D01*
X212220803Y-124790608D02*
X212125565Y-124838227D01*
X211792231Y-124790608D02*
X211268422Y-124790608D01*
X211268422Y-124790608D02*
X211792231Y-125457275D01*
X211792231Y-125457275D02*
X211268422Y-125457275D01*
X210982707Y-124790608D02*
X210744612Y-125457275D01*
X210506517Y-124790608D02*
X210744612Y-125457275D01*
X210744612Y-125457275D02*
X210839850Y-125695370D01*
X210839850Y-125695370D02*
X210887469Y-125742989D01*
X210887469Y-125742989D02*
X210982707Y-125790608D01*
X210125564Y-125457275D02*
X210125564Y-124457275D01*
X210030326Y-125076322D02*
X209744612Y-125457275D01*
X209744612Y-124790608D02*
X210125564Y-125171560D01*
X194206398Y-78039719D02*
X194539731Y-77563528D01*
X194777826Y-78039719D02*
X194777826Y-77039719D01*
X194777826Y-77039719D02*
X194396874Y-77039719D01*
X194396874Y-77039719D02*
X194301636Y-77087338D01*
X194301636Y-77087338D02*
X194254017Y-77134957D01*
X194254017Y-77134957D02*
X194206398Y-77230195D01*
X194206398Y-77230195D02*
X194206398Y-77373052D01*
X194206398Y-77373052D02*
X194254017Y-77468290D01*
X194254017Y-77468290D02*
X194301636Y-77515909D01*
X194301636Y-77515909D02*
X194396874Y-77563528D01*
X194396874Y-77563528D02*
X194777826Y-77563528D01*
X193349255Y-78039719D02*
X193349255Y-77515909D01*
X193349255Y-77515909D02*
X193396874Y-77420671D01*
X193396874Y-77420671D02*
X193492112Y-77373052D01*
X193492112Y-77373052D02*
X193682588Y-77373052D01*
X193682588Y-77373052D02*
X193777826Y-77420671D01*
X193349255Y-77992100D02*
X193444493Y-78039719D01*
X193444493Y-78039719D02*
X193682588Y-78039719D01*
X193682588Y-78039719D02*
X193777826Y-77992100D01*
X193777826Y-77992100D02*
X193825445Y-77896861D01*
X193825445Y-77896861D02*
X193825445Y-77801623D01*
X193825445Y-77801623D02*
X193777826Y-77706385D01*
X193777826Y-77706385D02*
X193682588Y-77658766D01*
X193682588Y-77658766D02*
X193444493Y-77658766D01*
X193444493Y-77658766D02*
X193349255Y-77611147D01*
X192873064Y-77373052D02*
X192873064Y-78039719D01*
X192873064Y-77468290D02*
X192825445Y-77420671D01*
X192825445Y-77420671D02*
X192730207Y-77373052D01*
X192730207Y-77373052D02*
X192587350Y-77373052D01*
X192587350Y-77373052D02*
X192492112Y-77420671D01*
X192492112Y-77420671D02*
X192444493Y-77515909D01*
X192444493Y-77515909D02*
X192444493Y-78039719D01*
X191539731Y-77373052D02*
X191539731Y-78182576D01*
X191539731Y-78182576D02*
X191587350Y-78277814D01*
X191587350Y-78277814D02*
X191634969Y-78325433D01*
X191634969Y-78325433D02*
X191730207Y-78373052D01*
X191730207Y-78373052D02*
X191873064Y-78373052D01*
X191873064Y-78373052D02*
X191968302Y-78325433D01*
X191539731Y-77992100D02*
X191634969Y-78039719D01*
X191634969Y-78039719D02*
X191825445Y-78039719D01*
X191825445Y-78039719D02*
X191920683Y-77992100D01*
X191920683Y-77992100D02*
X191968302Y-77944480D01*
X191968302Y-77944480D02*
X192015921Y-77849242D01*
X192015921Y-77849242D02*
X192015921Y-77563528D01*
X192015921Y-77563528D02*
X191968302Y-77468290D01*
X191968302Y-77468290D02*
X191920683Y-77420671D01*
X191920683Y-77420671D02*
X191825445Y-77373052D01*
X191825445Y-77373052D02*
X191634969Y-77373052D01*
X191634969Y-77373052D02*
X191539731Y-77420671D01*
X190682588Y-77992100D02*
X190777826Y-78039719D01*
X190777826Y-78039719D02*
X190968302Y-78039719D01*
X190968302Y-78039719D02*
X191063540Y-77992100D01*
X191063540Y-77992100D02*
X191111159Y-77896861D01*
X191111159Y-77896861D02*
X191111159Y-77515909D01*
X191111159Y-77515909D02*
X191063540Y-77420671D01*
X191063540Y-77420671D02*
X190968302Y-77373052D01*
X190968302Y-77373052D02*
X190777826Y-77373052D01*
X190777826Y-77373052D02*
X190682588Y-77420671D01*
X190682588Y-77420671D02*
X190634969Y-77515909D01*
X190634969Y-77515909D02*
X190634969Y-77611147D01*
X190634969Y-77611147D02*
X191111159Y-77706385D01*
X190206397Y-77944480D02*
X190158778Y-77992100D01*
X190158778Y-77992100D02*
X190206397Y-78039719D01*
X190206397Y-78039719D02*
X190254016Y-77992100D01*
X190254016Y-77992100D02*
X190206397Y-77944480D01*
X190206397Y-77944480D02*
X190206397Y-78039719D01*
X190206397Y-77420671D02*
X190158778Y-77468290D01*
X190158778Y-77468290D02*
X190206397Y-77515909D01*
X190206397Y-77515909D02*
X190254016Y-77468290D01*
X190254016Y-77468290D02*
X190206397Y-77420671D01*
X190206397Y-77420671D02*
X190206397Y-77515909D01*
X188444493Y-78039719D02*
X189015921Y-78039719D01*
X188730207Y-78039719D02*
X188730207Y-77039719D01*
X188730207Y-77039719D02*
X188825445Y-77182576D01*
X188825445Y-77182576D02*
X188920683Y-77277814D01*
X188920683Y-77277814D02*
X189015921Y-77325433D01*
X187825445Y-77039719D02*
X187730207Y-77039719D01*
X187730207Y-77039719D02*
X187634969Y-77087338D01*
X187634969Y-77087338D02*
X187587350Y-77134957D01*
X187587350Y-77134957D02*
X187539731Y-77230195D01*
X187539731Y-77230195D02*
X187492112Y-77420671D01*
X187492112Y-77420671D02*
X187492112Y-77658766D01*
X187492112Y-77658766D02*
X187539731Y-77849242D01*
X187539731Y-77849242D02*
X187587350Y-77944480D01*
X187587350Y-77944480D02*
X187634969Y-77992100D01*
X187634969Y-77992100D02*
X187730207Y-78039719D01*
X187730207Y-78039719D02*
X187825445Y-78039719D01*
X187825445Y-78039719D02*
X187920683Y-77992100D01*
X187920683Y-77992100D02*
X187968302Y-77944480D01*
X187968302Y-77944480D02*
X188015921Y-77849242D01*
X188015921Y-77849242D02*
X188063540Y-77658766D01*
X188063540Y-77658766D02*
X188063540Y-77420671D01*
X188063540Y-77420671D02*
X188015921Y-77230195D01*
X188015921Y-77230195D02*
X187968302Y-77134957D01*
X187968302Y-77134957D02*
X187920683Y-77087338D01*
X187920683Y-77087338D02*
X187825445Y-77039719D01*
X186873064Y-77039719D02*
X186777826Y-77039719D01*
X186777826Y-77039719D02*
X186682588Y-77087338D01*
X186682588Y-77087338D02*
X186634969Y-77134957D01*
X186634969Y-77134957D02*
X186587350Y-77230195D01*
X186587350Y-77230195D02*
X186539731Y-77420671D01*
X186539731Y-77420671D02*
X186539731Y-77658766D01*
X186539731Y-77658766D02*
X186587350Y-77849242D01*
X186587350Y-77849242D02*
X186634969Y-77944480D01*
X186634969Y-77944480D02*
X186682588Y-77992100D01*
X186682588Y-77992100D02*
X186777826Y-78039719D01*
X186777826Y-78039719D02*
X186873064Y-78039719D01*
X186873064Y-78039719D02*
X186968302Y-77992100D01*
X186968302Y-77992100D02*
X187015921Y-77944480D01*
X187015921Y-77944480D02*
X187063540Y-77849242D01*
X187063540Y-77849242D02*
X187111159Y-77658766D01*
X187111159Y-77658766D02*
X187111159Y-77420671D01*
X187111159Y-77420671D02*
X187063540Y-77230195D01*
X187063540Y-77230195D02*
X187015921Y-77134957D01*
X187015921Y-77134957D02*
X186968302Y-77087338D01*
X186968302Y-77087338D02*
X186873064Y-77039719D01*
X186111159Y-77373052D02*
X186111159Y-78373052D01*
X186111159Y-77420671D02*
X186015921Y-77373052D01*
X186015921Y-77373052D02*
X185825445Y-77373052D01*
X185825445Y-77373052D02*
X185730207Y-77420671D01*
X185730207Y-77420671D02*
X185682588Y-77468290D01*
X185682588Y-77468290D02*
X185634969Y-77563528D01*
X185634969Y-77563528D02*
X185634969Y-77849242D01*
X185634969Y-77849242D02*
X185682588Y-77944480D01*
X185682588Y-77944480D02*
X185730207Y-77992100D01*
X185730207Y-77992100D02*
X185825445Y-78039719D01*
X185825445Y-78039719D02*
X186015921Y-78039719D01*
X186015921Y-78039719D02*
X186111159Y-77992100D01*
X185254016Y-77754004D02*
X184777826Y-77754004D01*
X185349254Y-78039719D02*
X185015921Y-77039719D01*
X185015921Y-77039719D02*
X184682588Y-78039719D01*
X183587349Y-77658766D02*
X182825445Y-77658766D01*
X181063540Y-78039719D02*
X181634968Y-78039719D01*
X181349254Y-78039719D02*
X181349254Y-77039719D01*
X181349254Y-77039719D02*
X181444492Y-77182576D01*
X181444492Y-77182576D02*
X181539730Y-77277814D01*
X181539730Y-77277814D02*
X181634968Y-77325433D01*
X180206397Y-77373052D02*
X180206397Y-78039719D01*
X180634968Y-77373052D02*
X180634968Y-77896861D01*
X180634968Y-77896861D02*
X180587349Y-77992100D01*
X180587349Y-77992100D02*
X180492111Y-78039719D01*
X180492111Y-78039719D02*
X180349254Y-78039719D01*
X180349254Y-78039719D02*
X180254016Y-77992100D01*
X180254016Y-77992100D02*
X180206397Y-77944480D01*
X179777825Y-77754004D02*
X179301635Y-77754004D01*
X179873063Y-78039719D02*
X179539730Y-77039719D01*
X179539730Y-77039719D02*
X179206397Y-78039719D01*
X194206398Y-79649663D02*
X194539731Y-79173472D01*
X194777826Y-79649663D02*
X194777826Y-78649663D01*
X194777826Y-78649663D02*
X194396874Y-78649663D01*
X194396874Y-78649663D02*
X194301636Y-78697282D01*
X194301636Y-78697282D02*
X194254017Y-78744901D01*
X194254017Y-78744901D02*
X194206398Y-78840139D01*
X194206398Y-78840139D02*
X194206398Y-78982996D01*
X194206398Y-78982996D02*
X194254017Y-79078234D01*
X194254017Y-79078234D02*
X194301636Y-79125853D01*
X194301636Y-79125853D02*
X194396874Y-79173472D01*
X194396874Y-79173472D02*
X194777826Y-79173472D01*
X193396874Y-79602044D02*
X193492112Y-79649663D01*
X193492112Y-79649663D02*
X193682588Y-79649663D01*
X193682588Y-79649663D02*
X193777826Y-79602044D01*
X193777826Y-79602044D02*
X193825445Y-79506805D01*
X193825445Y-79506805D02*
X193825445Y-79125853D01*
X193825445Y-79125853D02*
X193777826Y-79030615D01*
X193777826Y-79030615D02*
X193682588Y-78982996D01*
X193682588Y-78982996D02*
X193492112Y-78982996D01*
X193492112Y-78982996D02*
X193396874Y-79030615D01*
X193396874Y-79030615D02*
X193349255Y-79125853D01*
X193349255Y-79125853D02*
X193349255Y-79221091D01*
X193349255Y-79221091D02*
X193825445Y-79316329D01*
X192968302Y-79602044D02*
X192873064Y-79649663D01*
X192873064Y-79649663D02*
X192682588Y-79649663D01*
X192682588Y-79649663D02*
X192587350Y-79602044D01*
X192587350Y-79602044D02*
X192539731Y-79506805D01*
X192539731Y-79506805D02*
X192539731Y-79459186D01*
X192539731Y-79459186D02*
X192587350Y-79363948D01*
X192587350Y-79363948D02*
X192682588Y-79316329D01*
X192682588Y-79316329D02*
X192825445Y-79316329D01*
X192825445Y-79316329D02*
X192920683Y-79268710D01*
X192920683Y-79268710D02*
X192968302Y-79173472D01*
X192968302Y-79173472D02*
X192968302Y-79125853D01*
X192968302Y-79125853D02*
X192920683Y-79030615D01*
X192920683Y-79030615D02*
X192825445Y-78982996D01*
X192825445Y-78982996D02*
X192682588Y-78982996D01*
X192682588Y-78982996D02*
X192587350Y-79030615D01*
X191968302Y-79649663D02*
X192063540Y-79602044D01*
X192063540Y-79602044D02*
X192111159Y-79554424D01*
X192111159Y-79554424D02*
X192158778Y-79459186D01*
X192158778Y-79459186D02*
X192158778Y-79173472D01*
X192158778Y-79173472D02*
X192111159Y-79078234D01*
X192111159Y-79078234D02*
X192063540Y-79030615D01*
X192063540Y-79030615D02*
X191968302Y-78982996D01*
X191968302Y-78982996D02*
X191825445Y-78982996D01*
X191825445Y-78982996D02*
X191730207Y-79030615D01*
X191730207Y-79030615D02*
X191682588Y-79078234D01*
X191682588Y-79078234D02*
X191634969Y-79173472D01*
X191634969Y-79173472D02*
X191634969Y-79459186D01*
X191634969Y-79459186D02*
X191682588Y-79554424D01*
X191682588Y-79554424D02*
X191730207Y-79602044D01*
X191730207Y-79602044D02*
X191825445Y-79649663D01*
X191825445Y-79649663D02*
X191968302Y-79649663D01*
X191063540Y-79649663D02*
X191158778Y-79602044D01*
X191158778Y-79602044D02*
X191206397Y-79506805D01*
X191206397Y-79506805D02*
X191206397Y-78649663D01*
X190254016Y-78982996D02*
X190254016Y-79649663D01*
X190682587Y-78982996D02*
X190682587Y-79506805D01*
X190682587Y-79506805D02*
X190634968Y-79602044D01*
X190634968Y-79602044D02*
X190539730Y-79649663D01*
X190539730Y-79649663D02*
X190396873Y-79649663D01*
X190396873Y-79649663D02*
X190301635Y-79602044D01*
X190301635Y-79602044D02*
X190254016Y-79554424D01*
X189920682Y-78982996D02*
X189539730Y-78982996D01*
X189777825Y-78649663D02*
X189777825Y-79506805D01*
X189777825Y-79506805D02*
X189730206Y-79602044D01*
X189730206Y-79602044D02*
X189634968Y-79649663D01*
X189634968Y-79649663D02*
X189539730Y-79649663D01*
X189206396Y-79649663D02*
X189206396Y-78982996D01*
X189206396Y-78649663D02*
X189254015Y-78697282D01*
X189254015Y-78697282D02*
X189206396Y-78744901D01*
X189206396Y-78744901D02*
X189158777Y-78697282D01*
X189158777Y-78697282D02*
X189206396Y-78649663D01*
X189206396Y-78649663D02*
X189206396Y-78744901D01*
X188587349Y-79649663D02*
X188682587Y-79602044D01*
X188682587Y-79602044D02*
X188730206Y-79554424D01*
X188730206Y-79554424D02*
X188777825Y-79459186D01*
X188777825Y-79459186D02*
X188777825Y-79173472D01*
X188777825Y-79173472D02*
X188730206Y-79078234D01*
X188730206Y-79078234D02*
X188682587Y-79030615D01*
X188682587Y-79030615D02*
X188587349Y-78982996D01*
X188587349Y-78982996D02*
X188444492Y-78982996D01*
X188444492Y-78982996D02*
X188349254Y-79030615D01*
X188349254Y-79030615D02*
X188301635Y-79078234D01*
X188301635Y-79078234D02*
X188254016Y-79173472D01*
X188254016Y-79173472D02*
X188254016Y-79459186D01*
X188254016Y-79459186D02*
X188301635Y-79554424D01*
X188301635Y-79554424D02*
X188349254Y-79602044D01*
X188349254Y-79602044D02*
X188444492Y-79649663D01*
X188444492Y-79649663D02*
X188587349Y-79649663D01*
X187825444Y-78982996D02*
X187825444Y-79649663D01*
X187825444Y-79078234D02*
X187777825Y-79030615D01*
X187777825Y-79030615D02*
X187682587Y-78982996D01*
X187682587Y-78982996D02*
X187539730Y-78982996D01*
X187539730Y-78982996D02*
X187444492Y-79030615D01*
X187444492Y-79030615D02*
X187396873Y-79125853D01*
X187396873Y-79125853D02*
X187396873Y-79649663D01*
X186920682Y-79554424D02*
X186873063Y-79602044D01*
X186873063Y-79602044D02*
X186920682Y-79649663D01*
X186920682Y-79649663D02*
X186968301Y-79602044D01*
X186968301Y-79602044D02*
X186920682Y-79554424D01*
X186920682Y-79554424D02*
X186920682Y-79649663D01*
X186920682Y-79030615D02*
X186873063Y-79078234D01*
X186873063Y-79078234D02*
X186920682Y-79125853D01*
X186920682Y-79125853D02*
X186968301Y-79078234D01*
X186968301Y-79078234D02*
X186920682Y-79030615D01*
X186920682Y-79030615D02*
X186920682Y-79125853D01*
X185158778Y-79649663D02*
X185730206Y-79649663D01*
X185444492Y-79649663D02*
X185444492Y-78649663D01*
X185444492Y-78649663D02*
X185539730Y-78792520D01*
X185539730Y-78792520D02*
X185634968Y-78887758D01*
X185634968Y-78887758D02*
X185730206Y-78935377D01*
X184539730Y-78649663D02*
X184444492Y-78649663D01*
X184444492Y-78649663D02*
X184349254Y-78697282D01*
X184349254Y-78697282D02*
X184301635Y-78744901D01*
X184301635Y-78744901D02*
X184254016Y-78840139D01*
X184254016Y-78840139D02*
X184206397Y-79030615D01*
X184206397Y-79030615D02*
X184206397Y-79268710D01*
X184206397Y-79268710D02*
X184254016Y-79459186D01*
X184254016Y-79459186D02*
X184301635Y-79554424D01*
X184301635Y-79554424D02*
X184349254Y-79602044D01*
X184349254Y-79602044D02*
X184444492Y-79649663D01*
X184444492Y-79649663D02*
X184539730Y-79649663D01*
X184539730Y-79649663D02*
X184634968Y-79602044D01*
X184634968Y-79602044D02*
X184682587Y-79554424D01*
X184682587Y-79554424D02*
X184730206Y-79459186D01*
X184730206Y-79459186D02*
X184777825Y-79268710D01*
X184777825Y-79268710D02*
X184777825Y-79030615D01*
X184777825Y-79030615D02*
X184730206Y-78840139D01*
X184730206Y-78840139D02*
X184682587Y-78744901D01*
X184682587Y-78744901D02*
X184634968Y-78697282D01*
X184634968Y-78697282D02*
X184539730Y-78649663D01*
X183587349Y-78649663D02*
X183492111Y-78649663D01*
X183492111Y-78649663D02*
X183396873Y-78697282D01*
X183396873Y-78697282D02*
X183349254Y-78744901D01*
X183349254Y-78744901D02*
X183301635Y-78840139D01*
X183301635Y-78840139D02*
X183254016Y-79030615D01*
X183254016Y-79030615D02*
X183254016Y-79268710D01*
X183254016Y-79268710D02*
X183301635Y-79459186D01*
X183301635Y-79459186D02*
X183349254Y-79554424D01*
X183349254Y-79554424D02*
X183396873Y-79602044D01*
X183396873Y-79602044D02*
X183492111Y-79649663D01*
X183492111Y-79649663D02*
X183587349Y-79649663D01*
X183587349Y-79649663D02*
X183682587Y-79602044D01*
X183682587Y-79602044D02*
X183730206Y-79554424D01*
X183730206Y-79554424D02*
X183777825Y-79459186D01*
X183777825Y-79459186D02*
X183825444Y-79268710D01*
X183825444Y-79268710D02*
X183825444Y-79030615D01*
X183825444Y-79030615D02*
X183777825Y-78840139D01*
X183777825Y-78840139D02*
X183730206Y-78744901D01*
X183730206Y-78744901D02*
X183682587Y-78697282D01*
X183682587Y-78697282D02*
X183587349Y-78649663D01*
X182825444Y-78982996D02*
X182825444Y-79982996D01*
X182825444Y-79030615D02*
X182730206Y-78982996D01*
X182730206Y-78982996D02*
X182539730Y-78982996D01*
X182539730Y-78982996D02*
X182444492Y-79030615D01*
X182444492Y-79030615D02*
X182396873Y-79078234D01*
X182396873Y-79078234D02*
X182349254Y-79173472D01*
X182349254Y-79173472D02*
X182349254Y-79459186D01*
X182349254Y-79459186D02*
X182396873Y-79554424D01*
X182396873Y-79554424D02*
X182444492Y-79602044D01*
X182444492Y-79602044D02*
X182539730Y-79649663D01*
X182539730Y-79649663D02*
X182730206Y-79649663D01*
X182730206Y-79649663D02*
X182825444Y-79602044D01*
X181968301Y-79363948D02*
X181492111Y-79363948D01*
X182063539Y-79649663D02*
X181730206Y-78649663D01*
X181730206Y-78649663D02*
X181396873Y-79649663D01*
X194444493Y-80735797D02*
X194301636Y-80783416D01*
X194301636Y-80783416D02*
X194254017Y-80831035D01*
X194254017Y-80831035D02*
X194206398Y-80926273D01*
X194206398Y-80926273D02*
X194206398Y-81069130D01*
X194206398Y-81069130D02*
X194254017Y-81164368D01*
X194254017Y-81164368D02*
X194301636Y-81211988D01*
X194301636Y-81211988D02*
X194396874Y-81259607D01*
X194396874Y-81259607D02*
X194777826Y-81259607D01*
X194777826Y-81259607D02*
X194777826Y-80259607D01*
X194777826Y-80259607D02*
X194444493Y-80259607D01*
X194444493Y-80259607D02*
X194349255Y-80307226D01*
X194349255Y-80307226D02*
X194301636Y-80354845D01*
X194301636Y-80354845D02*
X194254017Y-80450083D01*
X194254017Y-80450083D02*
X194254017Y-80545321D01*
X194254017Y-80545321D02*
X194301636Y-80640559D01*
X194301636Y-80640559D02*
X194349255Y-80688178D01*
X194349255Y-80688178D02*
X194444493Y-80735797D01*
X194444493Y-80735797D02*
X194777826Y-80735797D01*
X193873064Y-80259607D02*
X193634969Y-81259607D01*
X193634969Y-81259607D02*
X193444493Y-80545321D01*
X193444493Y-80545321D02*
X193254017Y-81259607D01*
X193254017Y-81259607D02*
X193015922Y-80259607D01*
X192634969Y-81164368D02*
X192587350Y-81211988D01*
X192587350Y-81211988D02*
X192634969Y-81259607D01*
X192634969Y-81259607D02*
X192682588Y-81211988D01*
X192682588Y-81211988D02*
X192634969Y-81164368D01*
X192634969Y-81164368D02*
X192634969Y-81259607D01*
X192634969Y-80640559D02*
X192587350Y-80688178D01*
X192587350Y-80688178D02*
X192634969Y-80735797D01*
X192634969Y-80735797D02*
X192682588Y-80688178D01*
X192682588Y-80688178D02*
X192634969Y-80640559D01*
X192634969Y-80640559D02*
X192634969Y-80735797D01*
X190873065Y-81259607D02*
X191444493Y-81259607D01*
X191158779Y-81259607D02*
X191158779Y-80259607D01*
X191158779Y-80259607D02*
X191254017Y-80402464D01*
X191254017Y-80402464D02*
X191349255Y-80497702D01*
X191349255Y-80497702D02*
X191444493Y-80545321D01*
X190444493Y-81259607D02*
X190444493Y-80259607D01*
X190444493Y-80735797D02*
X189873065Y-80735797D01*
X189873065Y-81259607D02*
X189873065Y-80259607D01*
X189492112Y-80592940D02*
X188968303Y-80592940D01*
X188968303Y-80592940D02*
X189492112Y-81259607D01*
X189492112Y-81259607D02*
X188968303Y-81259607D01*
D11*
X177900000Y-76050000D02*
X196100000Y-76050000D01*
X196100000Y-81950000D01*
X177900000Y-81950000D01*
X177900000Y-76050000D01*
M02*
