%TF.GenerationSoftware,KiCad,Pcbnew,9.0.2*%
%TF.CreationDate,2025-11-12T20:00:32+01:00*%
%TF.ProjectId,precise_ammeter,70726563-6973-4655-9f61-6d6d65746572,rev?*%
%TF.SameCoordinates,Original*%
%TF.FileFunction,Other,User*%
%FSLAX46Y46*%
G04 Gerber Fmt 4.6, Leading zero omitted, Abs format (unit mm)*
G04 Created by KiCad (PCBNEW 9.0.2) date 2025-11-12 20:00:32*
%MOMM*%
%LPD*%
G01*
G04 APERTURE LIST*
%ADD10C,0.050000*%
G04 APERTURE END LIST*
%TO.C,Y1*%
D10*
X204050000Y-67032500D02*
X198350000Y-67032500D01*
X198350000Y-80532500D01*
X204050000Y-80532500D01*
X204050000Y-67032500D01*
%TO.C,R5*%
X211687500Y-61550000D02*
X213587500Y-61550000D01*
X211687500Y-65250000D02*
X211687500Y-61550000D01*
X213587500Y-61550000D02*
X213587500Y-65250000D01*
X213587500Y-65250000D02*
X211687500Y-65250000D01*
%TO.C,C20*%
X216132500Y-117720000D02*
X219892500Y-117720000D01*
X216132500Y-119680000D02*
X216132500Y-117720000D01*
X219892500Y-117720000D02*
X219892500Y-119680000D01*
X219892500Y-119680000D02*
X216132500Y-119680000D01*
%TO.C,C8*%
X191810000Y-85150000D02*
X193770000Y-85150000D01*
X191810000Y-88910000D02*
X191810000Y-85150000D01*
X193770000Y-85150000D02*
X193770000Y-88910000D01*
X193770000Y-88910000D02*
X191810000Y-88910000D01*
%TO.C,C36*%
X221220000Y-80000000D02*
X223180000Y-80000000D01*
X221220000Y-83400000D02*
X221220000Y-80000000D01*
X223180000Y-80000000D02*
X223180000Y-83400000D01*
X223180000Y-83400000D02*
X221220000Y-83400000D01*
%TO.C,JP1*%
X186800000Y-103350000D02*
X186800000Y-105850000D01*
X186800000Y-103350000D02*
X191400000Y-103350000D01*
X191400000Y-105850000D02*
X186800000Y-105850000D01*
X191400000Y-105850000D02*
X191400000Y-103350000D01*
%TO.C,D5*%
X207000000Y-79850000D02*
X211400000Y-79850000D01*
X207000000Y-82150000D02*
X207000000Y-79850000D01*
X211400000Y-82150000D02*
X207000000Y-82150000D01*
X211400000Y-82150000D02*
X211400000Y-79850000D01*
%TO.C,R3*%
X223250000Y-88550000D02*
X226950000Y-88550000D01*
X223250000Y-90450000D02*
X223250000Y-88550000D01*
X226950000Y-88550000D02*
X226950000Y-90450000D01*
X226950000Y-90450000D02*
X223250000Y-90450000D01*
%TO.C,C24*%
X180487500Y-59050000D02*
X181437500Y-59050000D01*
X180487500Y-61150000D02*
X180487500Y-59050000D01*
X181437500Y-59050000D02*
X181437500Y-57700000D01*
X181437500Y-61150000D02*
X180487500Y-61150000D01*
X181437500Y-62500000D02*
X181437500Y-61150000D01*
X185087500Y-57700000D02*
X181437500Y-57700000D01*
X185087500Y-62500000D02*
X181437500Y-62500000D01*
X186237500Y-58850000D02*
X185087500Y-57700000D01*
X186237500Y-59050000D02*
X186237500Y-58850000D01*
X186237500Y-61150000D02*
X187187500Y-61150000D01*
X186237500Y-61350000D02*
X185087500Y-62500000D01*
X186237500Y-61350000D02*
X186237500Y-61150000D01*
X187187500Y-59050000D02*
X186237500Y-59050000D01*
X187187500Y-61150000D02*
X187187500Y-59050000D01*
%TO.C,R7*%
X184950000Y-100850000D02*
X188650000Y-100850000D01*
X184950000Y-102750000D02*
X184950000Y-100850000D01*
X188650000Y-100850000D02*
X188650000Y-102750000D01*
X188650000Y-102750000D02*
X184950000Y-102750000D01*
%TO.C,R24*%
X215825000Y-98650000D02*
X219525000Y-98650000D01*
X215825000Y-100550000D02*
X215825000Y-98650000D01*
X219525000Y-98650000D02*
X219525000Y-100550000D01*
X219525000Y-100550000D02*
X215825000Y-100550000D01*
%TO.C,R_SENSE1*%
X189200000Y-109370000D02*
X194100000Y-109370000D01*
X189200000Y-111630000D02*
X189200000Y-109370000D01*
X194100000Y-109370000D02*
X194100000Y-111630000D01*
X194100000Y-111630000D02*
X189200000Y-111630000D01*
%TO.C,C25*%
X196857500Y-59820000D02*
X200617500Y-59820000D01*
X196857500Y-61780000D02*
X196857500Y-59820000D01*
X200617500Y-59820000D02*
X200617500Y-61780000D01*
X200617500Y-61780000D02*
X196857500Y-61780000D01*
%TO.C,C26*%
X188595000Y-59620000D02*
X190555000Y-59620000D01*
X188595000Y-63380000D02*
X188595000Y-59620000D01*
X190555000Y-59620000D02*
X190555000Y-63380000D01*
X190555000Y-63380000D02*
X188595000Y-63380000D01*
%TO.C,U2*%
X201656250Y-92917500D02*
X201856250Y-92917500D01*
X201656250Y-95017500D02*
X201656250Y-92917500D01*
X201856250Y-91917500D02*
X204856250Y-91917500D01*
X201856250Y-92917500D02*
X201856250Y-91917500D01*
X201856250Y-95017500D02*
X201656250Y-95017500D01*
X201856250Y-96017500D02*
X201856250Y-95017500D01*
X204856250Y-91917500D02*
X204856250Y-92917500D01*
X204856250Y-92917500D02*
X205056250Y-92917500D01*
X204856250Y-95017500D02*
X204856250Y-96017500D01*
X204856250Y-96017500D02*
X201856250Y-96017500D01*
X205056250Y-92917500D02*
X205056250Y-95017500D01*
X205056250Y-95017500D02*
X204856250Y-95017500D01*
%TO.C,JP2*%
X195550000Y-105600000D02*
X195550000Y-101000000D01*
X195550000Y-105600000D02*
X198050000Y-105600000D01*
X198050000Y-101000000D02*
X195550000Y-101000000D01*
X198050000Y-101000000D02*
X198050000Y-105600000D01*
%TO.C,C30*%
X210957500Y-68250000D02*
X212917500Y-68250000D01*
X210957500Y-71650000D02*
X210957500Y-68250000D01*
X212917500Y-68250000D02*
X212917500Y-71650000D01*
X212917500Y-71650000D02*
X210957500Y-71650000D01*
%TO.C,R12*%
X205406250Y-91817500D02*
X207306250Y-91817500D01*
X205406250Y-95517500D02*
X205406250Y-91817500D01*
X207306250Y-91817500D02*
X207306250Y-95517500D01*
X207306250Y-95517500D02*
X205406250Y-95517500D01*
%TO.C,D1*%
X234525000Y-120550000D02*
X238225000Y-120550000D01*
X234525000Y-122450000D02*
X234525000Y-120550000D01*
X238225000Y-120550000D02*
X238225000Y-122450000D01*
X238225000Y-122450000D02*
X234525000Y-122450000D01*
%TO.C,R31*%
X223550000Y-58450000D02*
X227250000Y-58450000D01*
X223550000Y-60350000D02*
X223550000Y-58450000D01*
X227250000Y-58450000D02*
X227250000Y-60350000D01*
X227250000Y-60350000D02*
X223550000Y-60350000D01*
%TO.C,C7*%
X181172500Y-95550000D02*
X184932500Y-95550000D01*
X181172500Y-97510000D02*
X181172500Y-95550000D01*
X184932500Y-95550000D02*
X184932500Y-97510000D01*
X184932500Y-97510000D02*
X181172500Y-97510000D01*
%TO.C,JP3*%
X219700000Y-94850000D02*
X219700000Y-97350000D01*
X219700000Y-94850000D02*
X224300000Y-94850000D01*
X224300000Y-97350000D02*
X219700000Y-97350000D01*
X224300000Y-97350000D02*
X224300000Y-94850000D01*
%TO.C,C13*%
X236720000Y-92620000D02*
X240480000Y-92620000D01*
X236720000Y-94580000D02*
X236720000Y-92620000D01*
X240480000Y-92620000D02*
X240480000Y-94580000D01*
X240480000Y-94580000D02*
X236720000Y-94580000D01*
%TO.C,C38*%
X213157500Y-68200000D02*
X215117500Y-68200000D01*
X213157500Y-71600000D02*
X213157500Y-68200000D01*
X215117500Y-68200000D02*
X215117500Y-71600000D01*
X215117500Y-71600000D02*
X213157500Y-71600000D01*
%TO.C,C37*%
X226400000Y-75520000D02*
X229800000Y-75520000D01*
X226400000Y-77480000D02*
X226400000Y-75520000D01*
X229800000Y-75520000D02*
X229800000Y-77480000D01*
X229800000Y-77480000D02*
X226400000Y-77480000D01*
%TO.C,C14*%
X236482500Y-99520000D02*
X240242500Y-99520000D01*
X236482500Y-101480000D02*
X236482500Y-99520000D01*
X240242500Y-99520000D02*
X240242500Y-101480000D01*
X240242500Y-101480000D02*
X236482500Y-101480000D01*
%TO.C,C27*%
X175887500Y-70750000D02*
X175887500Y-72850000D01*
X175887500Y-72850000D02*
X176837500Y-72850000D01*
X176837500Y-70550000D02*
X176837500Y-70750000D01*
X176837500Y-70550000D02*
X177987500Y-69400000D01*
X176837500Y-70750000D02*
X175887500Y-70750000D01*
X176837500Y-72850000D02*
X176837500Y-73050000D01*
X176837500Y-73050000D02*
X177987500Y-74200000D01*
X177987500Y-69400000D02*
X181637500Y-69400000D01*
X177987500Y-74200000D02*
X181637500Y-74200000D01*
X181637500Y-69400000D02*
X181637500Y-70750000D01*
X181637500Y-70750000D02*
X182587500Y-70750000D01*
X181637500Y-72850000D02*
X181637500Y-74200000D01*
X182587500Y-70750000D02*
X182587500Y-72850000D01*
X182587500Y-72850000D02*
X181637500Y-72850000D01*
%TO.C,C32*%
X226400000Y-77720000D02*
X229800000Y-77720000D01*
X226400000Y-79680000D02*
X226400000Y-77720000D01*
X229800000Y-77720000D02*
X229800000Y-79680000D01*
X229800000Y-79680000D02*
X226400000Y-79680000D01*
%TO.C,C19*%
X223270000Y-111120000D02*
X225230000Y-111120000D01*
X223270000Y-114880000D02*
X223270000Y-111120000D01*
X225230000Y-111120000D02*
X225230000Y-114880000D01*
X225230000Y-114880000D02*
X223270000Y-114880000D01*
%TO.C,R19*%
X209550000Y-103140000D02*
X213250000Y-103140000D01*
X209550000Y-105040000D02*
X209550000Y-103140000D01*
X213250000Y-103140000D02*
X213250000Y-105040000D01*
X213250000Y-105040000D02*
X209550000Y-105040000D01*
%TO.C,C28*%
X183620000Y-70820000D02*
X187380000Y-70820000D01*
X183620000Y-72780000D02*
X183620000Y-70820000D01*
X187380000Y-70820000D02*
X187380000Y-72780000D01*
X187380000Y-72780000D02*
X183620000Y-72780000D01*
%TO.C,C5*%
X204745000Y-53670000D02*
X206705000Y-53670000D01*
X204745000Y-57430000D02*
X204745000Y-53670000D01*
X206705000Y-53670000D02*
X206705000Y-57430000D01*
X206705000Y-57430000D02*
X204745000Y-57430000D01*
%TO.C,R21*%
X226175000Y-100145000D02*
X228075000Y-100145000D01*
X226175000Y-103845000D02*
X226175000Y-100145000D01*
X228075000Y-100145000D02*
X228075000Y-103845000D01*
X228075000Y-103845000D02*
X226175000Y-103845000D01*
%TO.C,D4*%
X211900000Y-83050000D02*
X216300000Y-83050000D01*
X211900000Y-85350000D02*
X211900000Y-83050000D01*
X216300000Y-85350000D02*
X211900000Y-85350000D01*
X216300000Y-85350000D02*
X216300000Y-83050000D01*
%TO.C,C11*%
X202538750Y-89687500D02*
X206298750Y-89687500D01*
X202538750Y-91647500D02*
X202538750Y-89687500D01*
X206298750Y-89687500D02*
X206298750Y-91647500D01*
X206298750Y-91647500D02*
X202538750Y-91647500D01*
%TO.C,R29*%
X232250000Y-74450000D02*
X234150000Y-74450000D01*
X232250000Y-78150000D02*
X232250000Y-74450000D01*
X234150000Y-74450000D02*
X234150000Y-78150000D01*
X234150000Y-78150000D02*
X232250000Y-78150000D01*
%TO.C,R30*%
X218950000Y-58450000D02*
X222650000Y-58450000D01*
X218950000Y-60350000D02*
X218950000Y-58450000D01*
X222650000Y-58450000D02*
X222650000Y-60350000D01*
X222650000Y-60350000D02*
X218950000Y-60350000D01*
%TO.C,C10*%
X203638750Y-96287500D02*
X207398750Y-96287500D01*
X203638750Y-98247500D02*
X203638750Y-96287500D01*
X207398750Y-96287500D02*
X207398750Y-98247500D01*
X207398750Y-98247500D02*
X203638750Y-98247500D01*
%TO.C,C2*%
X189695000Y-106820000D02*
X193455000Y-106820000D01*
X189695000Y-108780000D02*
X189695000Y-106820000D01*
X193455000Y-106820000D02*
X193455000Y-108780000D01*
X193455000Y-108780000D02*
X189695000Y-108780000D01*
%TO.C,C6*%
X191720000Y-92920000D02*
X193680000Y-92920000D01*
X191720000Y-96680000D02*
X191720000Y-92920000D01*
X193680000Y-92920000D02*
X193680000Y-96680000D01*
X193680000Y-96680000D02*
X191720000Y-96680000D01*
%TO.C,R22*%
X212850000Y-107550000D02*
X214750000Y-107550000D01*
X212850000Y-111250000D02*
X212850000Y-107550000D01*
X214750000Y-107550000D02*
X214750000Y-111250000D01*
X214750000Y-111250000D02*
X212850000Y-111250000D01*
%TO.C,C16*%
X231047500Y-103910000D02*
X234807500Y-103910000D01*
X231047500Y-105870000D02*
X231047500Y-103910000D01*
X234807500Y-103910000D02*
X234807500Y-105870000D01*
X234807500Y-105870000D02*
X231047500Y-105870000D01*
%TO.C,R10*%
X193950000Y-95050000D02*
X195850000Y-95050000D01*
X193950000Y-98750000D02*
X193950000Y-95050000D01*
X195850000Y-95050000D02*
X195850000Y-98750000D01*
X195850000Y-98750000D02*
X193950000Y-98750000D01*
%TO.C,U9*%
X181937500Y-64400000D02*
X182177500Y-64400000D01*
X181937500Y-68800000D02*
X181937500Y-64400000D01*
X182177500Y-62900000D02*
X187097500Y-62900000D01*
X182177500Y-64400000D02*
X182177500Y-62900000D01*
X182177500Y-68800000D02*
X181937500Y-68800000D01*
X182177500Y-70300000D02*
X182177500Y-68800000D01*
X187097500Y-62900000D02*
X187097500Y-64400000D01*
X187097500Y-64400000D02*
X187337500Y-64400000D01*
X187097500Y-68800000D02*
X187097500Y-70300000D01*
X187097500Y-70300000D02*
X182177500Y-70300000D01*
X187337500Y-64400000D02*
X187337500Y-68800000D01*
X187337500Y-68800000D02*
X187097500Y-68800000D01*
%TO.C,D6*%
X216550000Y-80800000D02*
X218850000Y-80800000D01*
X216550000Y-85200000D02*
X216550000Y-80800000D01*
X216550000Y-85200000D02*
X218850000Y-85200000D01*
X218850000Y-80800000D02*
X218850000Y-85200000D01*
%TO.C,J2*%
X204250000Y-120300000D02*
G75*
G02*
X192750000Y-120300000I-5750000J0D01*
G01*
X192750000Y-120300000D02*
G75*
G02*
X204250000Y-120300000I5750000J0D01*
G01*
%TO.C,C15*%
X226407500Y-111715000D02*
X230167500Y-111715000D01*
X226407500Y-113675000D02*
X226407500Y-111715000D01*
X230167500Y-111715000D02*
X230167500Y-113675000D01*
X230167500Y-113675000D02*
X226407500Y-113675000D01*
%TO.C,C12*%
X229982500Y-98620000D02*
X233742500Y-98620000D01*
X229982500Y-100580000D02*
X229982500Y-98620000D01*
X233742500Y-98620000D02*
X233742500Y-100580000D01*
X233742500Y-100580000D02*
X229982500Y-100580000D01*
%TO.C,R20*%
X223975000Y-104045000D02*
X225875000Y-104045000D01*
X223975000Y-107745000D02*
X223975000Y-104045000D01*
X225875000Y-104045000D02*
X225875000Y-107745000D01*
X225875000Y-107745000D02*
X223975000Y-107745000D01*
%TO.C,R4*%
X212750000Y-91550000D02*
X216450000Y-91550000D01*
X212750000Y-93450000D02*
X212750000Y-91550000D01*
X216450000Y-91550000D02*
X216450000Y-93450000D01*
X216450000Y-93450000D02*
X212750000Y-93450000D01*
%TO.C,C18*%
X215857500Y-106520000D02*
X219617500Y-106520000D01*
X215857500Y-108480000D02*
X215857500Y-106520000D01*
X219617500Y-106520000D02*
X219617500Y-108480000D01*
X219617500Y-108480000D02*
X215857500Y-108480000D01*
%TO.C,R8*%
X184140000Y-82380000D02*
X187840000Y-82380000D01*
X184140000Y-84280000D02*
X184140000Y-82380000D01*
X187840000Y-82380000D02*
X187840000Y-84280000D01*
X187840000Y-84280000D02*
X184140000Y-84280000D01*
%TO.C,C29*%
X204320000Y-68032500D02*
X206280000Y-68032500D01*
X204320000Y-71432500D02*
X204320000Y-68032500D01*
X206280000Y-68032500D02*
X206280000Y-71432500D01*
X206280000Y-71432500D02*
X204320000Y-71432500D01*
%TO.C,JP4*%
X211400000Y-93850000D02*
X211400000Y-96350000D01*
X211400000Y-93850000D02*
X216000000Y-93850000D01*
X216000000Y-96350000D02*
X211400000Y-96350000D01*
X216000000Y-96350000D02*
X216000000Y-93850000D01*
%TO.C,R16*%
X212750000Y-89550000D02*
X216450000Y-89550000D01*
X212750000Y-91450000D02*
X212750000Y-89550000D01*
X216450000Y-89550000D02*
X216450000Y-91450000D01*
X216450000Y-91450000D02*
X212750000Y-91450000D01*
%TO.C,D3*%
X213920000Y-63450000D02*
X217280000Y-63450000D01*
X213920000Y-65350000D02*
X213920000Y-63450000D01*
X217280000Y-63450000D02*
X217280000Y-65350000D01*
X217280000Y-65350000D02*
X213920000Y-65350000D01*
%TO.C,U4*%
X226350000Y-106097500D02*
X226350000Y-111502500D01*
X226350000Y-106097500D02*
X233760000Y-106097500D01*
X226350000Y-111502500D02*
X233760000Y-111502500D01*
X233760000Y-106097500D02*
X233760000Y-111502500D01*
%TO.C,C34*%
X224800000Y-69430000D02*
X228200000Y-69430000D01*
X224800000Y-71390000D02*
X224800000Y-69430000D01*
X228200000Y-69430000D02*
X228200000Y-71390000D01*
X228200000Y-71390000D02*
X224800000Y-71390000D01*
%TO.C,C35*%
X223320000Y-80000000D02*
X225280000Y-80000000D01*
X223320000Y-83400000D02*
X223320000Y-80000000D01*
X225280000Y-80000000D02*
X225280000Y-83400000D01*
X225280000Y-83400000D02*
X223320000Y-83400000D01*
%TO.C,R15*%
X232750000Y-92000000D02*
X236450000Y-92000000D01*
X232750000Y-93900000D02*
X232750000Y-92000000D01*
X236450000Y-92000000D02*
X236450000Y-93900000D01*
X236450000Y-93900000D02*
X232750000Y-93900000D01*
%TO.C,D7*%
X211900000Y-79750000D02*
X216300000Y-79750000D01*
X211900000Y-82050000D02*
X211900000Y-79750000D01*
X216300000Y-82050000D02*
X211900000Y-82050000D01*
X216300000Y-82050000D02*
X216300000Y-79750000D01*
%TO.C,R23*%
X216200000Y-110050000D02*
X219900000Y-110050000D01*
X216200000Y-111950000D02*
X216200000Y-110050000D01*
X219900000Y-110050000D02*
X219900000Y-111950000D01*
X219900000Y-111950000D02*
X216200000Y-111950000D01*
%TO.C,R1*%
X214387500Y-58490000D02*
X216287500Y-58490000D01*
X214387500Y-62190000D02*
X214387500Y-58490000D01*
X216287500Y-58490000D02*
X216287500Y-62190000D01*
X216287500Y-62190000D02*
X214387500Y-62190000D01*
%TO.C,C9*%
X199226250Y-91687500D02*
X201186250Y-91687500D01*
X199226250Y-95447500D02*
X199226250Y-91687500D01*
X201186250Y-91687500D02*
X201186250Y-95447500D01*
X201186250Y-95447500D02*
X199226250Y-95447500D01*
%TO.C,J6*%
X214960000Y-54550000D02*
X226160000Y-54550000D01*
X214960000Y-58100000D02*
X214960000Y-54550000D01*
X226160000Y-54550000D02*
X226160000Y-58100000D01*
X226160000Y-58100000D02*
X214960000Y-58100000D01*
%TO.C,J3*%
X235337500Y-66760000D02*
X243767500Y-66760000D01*
X235337500Y-79660000D02*
X235337500Y-66760000D01*
X243767500Y-66760000D02*
X243767500Y-79660000D01*
X243767500Y-79660000D02*
X235337500Y-79660000D01*
%TO.C,C33*%
X216520000Y-65600000D02*
X218480000Y-65600000D01*
X216520000Y-69000000D02*
X216520000Y-65600000D01*
X218480000Y-65600000D02*
X218480000Y-69000000D01*
X218480000Y-69000000D02*
X216520000Y-69000000D01*
%TO.C,U1*%
X180630000Y-84600000D02*
X191150000Y-84600000D01*
X191150000Y-95260000D01*
X180630000Y-95260000D01*
X180630000Y-84600000D01*
%TO.C,U11*%
X215650000Y-71560000D02*
X217050000Y-71560000D01*
X215650000Y-77860000D02*
X215650000Y-71560000D01*
X217050000Y-70960000D02*
X217650000Y-70960000D01*
X217050000Y-71560000D02*
X217050000Y-70960000D01*
X217050000Y-77860000D02*
X215650000Y-77860000D01*
X217050000Y-78460000D02*
X217050000Y-77860000D01*
X217650000Y-69560000D02*
X223950000Y-69560000D01*
X217650000Y-70960000D02*
X217650000Y-69560000D01*
X217650000Y-78460000D02*
X217050000Y-78460000D01*
X217650000Y-79860000D02*
X217650000Y-78460000D01*
X223950000Y-69560000D02*
X223950000Y-70960000D01*
X223950000Y-70960000D02*
X224550000Y-70960000D01*
X223950000Y-78460000D02*
X223950000Y-79860000D01*
X223950000Y-79860000D02*
X217650000Y-79860000D01*
X224550000Y-70960000D02*
X224550000Y-71560000D01*
X224550000Y-71560000D02*
X225950000Y-71560000D01*
X224550000Y-77860000D02*
X224550000Y-78460000D01*
X224550000Y-78460000D02*
X223950000Y-78460000D01*
X225950000Y-71560000D02*
X225950000Y-77860000D01*
X225950000Y-77860000D02*
X224550000Y-77860000D01*
%TO.C,J5*%
X184937500Y-51900000D02*
X184937500Y-55500000D01*
X184937500Y-51900000D02*
X186637500Y-50600000D01*
X184937500Y-55500000D02*
X186637500Y-56800000D01*
X186637500Y-50600000D02*
X196137500Y-50600000D01*
X186637500Y-56800000D02*
X196137500Y-56800000D01*
X196137500Y-50600000D02*
X196137500Y-56800000D01*
%TO.C,C1*%
X199445000Y-51370000D02*
X203205000Y-51370000D01*
X199445000Y-53330000D02*
X199445000Y-51370000D01*
X203205000Y-51370000D02*
X203205000Y-53330000D01*
X203205000Y-53330000D02*
X199445000Y-53330000D01*
%TO.C,C31*%
X204320000Y-75682500D02*
X206280000Y-75682500D01*
X204320000Y-79082500D02*
X204320000Y-75682500D01*
X206280000Y-75682500D02*
X206280000Y-79082500D01*
X206280000Y-79082500D02*
X204320000Y-79082500D01*
%TO.C,U7*%
X199507500Y-53650000D02*
X199507500Y-57250000D01*
X199507500Y-53650000D02*
X204267500Y-53650000D01*
X204267500Y-57250000D02*
X199507500Y-57250000D01*
X204267500Y-57250000D02*
X204267500Y-53650000D01*
%TO.C,R27*%
X232150000Y-118725000D02*
X234050000Y-118725000D01*
X232150000Y-122425000D02*
X232150000Y-118725000D01*
X234050000Y-118725000D02*
X234050000Y-122425000D01*
X234050000Y-122425000D02*
X232150000Y-122425000D01*
%TO.C,U10*%
X191120000Y-59700000D02*
X191120000Y-63300000D01*
X191120000Y-59700000D02*
X195880000Y-59700000D01*
X195880000Y-63300000D02*
X191120000Y-63300000D01*
X195880000Y-63300000D02*
X195880000Y-59700000D01*
%TO.C,R2*%
X221050000Y-90850000D02*
X222950000Y-90850000D01*
X221050000Y-94550000D02*
X221050000Y-90850000D01*
X222950000Y-90850000D02*
X222950000Y-94550000D01*
X222950000Y-94550000D02*
X221050000Y-94550000D01*
%TO.C,U5*%
X215475000Y-112340000D02*
X216975000Y-112340000D01*
X215475000Y-117260000D02*
X215475000Y-112340000D01*
X216975000Y-112100000D02*
X221375000Y-112100000D01*
X216975000Y-112340000D02*
X216975000Y-112100000D01*
X216975000Y-117260000D02*
X215475000Y-117260000D01*
X216975000Y-117500000D02*
X216975000Y-117260000D01*
X221375000Y-112100000D02*
X221375000Y-112340000D01*
X221375000Y-112340000D02*
X222875000Y-112340000D01*
X221375000Y-117260000D02*
X221375000Y-117500000D01*
X221375000Y-117500000D02*
X216975000Y-117500000D01*
X222875000Y-112340000D02*
X222875000Y-117260000D01*
X222875000Y-117260000D02*
X221375000Y-117260000D01*
%TO.C,C40*%
X212220000Y-55300000D02*
X214180000Y-55300000D01*
X212220000Y-58700000D02*
X212220000Y-55300000D01*
X214180000Y-55300000D02*
X214180000Y-58700000D01*
X214180000Y-58700000D02*
X212220000Y-58700000D01*
%TO.C,R9*%
X186940000Y-95380000D02*
X190640000Y-95380000D01*
X186940000Y-97280000D02*
X186940000Y-95380000D01*
X190640000Y-95380000D02*
X190640000Y-97280000D01*
X190640000Y-97280000D02*
X186940000Y-97280000D01*
%TO.C,R26*%
X232150000Y-82650000D02*
X234050000Y-82650000D01*
X232150000Y-86350000D02*
X232150000Y-82650000D01*
X234050000Y-82650000D02*
X234050000Y-86350000D01*
X234050000Y-86350000D02*
X232150000Y-86350000D01*
%TO.C,JP5*%
X202856250Y-86917500D02*
X202856250Y-89417500D01*
X202856250Y-86917500D02*
X206156250Y-86917500D01*
X206156250Y-89417500D02*
X202856250Y-89417500D01*
X206156250Y-89417500D02*
X206156250Y-86917500D01*
%TO.C,U6*%
X215200000Y-100940000D02*
X216700000Y-100940000D01*
X215200000Y-105860000D02*
X215200000Y-100940000D01*
X216700000Y-100700000D02*
X221100000Y-100700000D01*
X216700000Y-100940000D02*
X216700000Y-100700000D01*
X216700000Y-105860000D02*
X215200000Y-105860000D01*
X216700000Y-106100000D02*
X216700000Y-105860000D01*
X221100000Y-100700000D02*
X221100000Y-100940000D01*
X221100000Y-100940000D02*
X222600000Y-100940000D01*
X221100000Y-105860000D02*
X221100000Y-106100000D01*
X221100000Y-106100000D02*
X216700000Y-106100000D01*
X222600000Y-100940000D02*
X222600000Y-105860000D01*
X222600000Y-105860000D02*
X221100000Y-105860000D01*
%TO.C,C4*%
X216920000Y-89582500D02*
X218880000Y-89582500D01*
X216920000Y-93342500D02*
X216920000Y-89582500D01*
X218880000Y-89582500D02*
X218880000Y-93342500D01*
X218880000Y-93342500D02*
X216920000Y-93342500D01*
%TO.C,U8*%
X189050000Y-70530000D02*
X189050000Y-65770000D01*
X189050000Y-70530000D02*
X192650000Y-70530000D01*
X192650000Y-65770000D02*
X189050000Y-65770000D01*
X192650000Y-65770000D02*
X192650000Y-70530000D01*
%TO.C,C21*%
X222995000Y-99620000D02*
X224955000Y-99620000D01*
X222995000Y-103380000D02*
X222995000Y-99620000D01*
X224955000Y-99620000D02*
X224955000Y-103380000D01*
X224955000Y-103380000D02*
X222995000Y-103380000D01*
%TO.C,JP6*%
X228375000Y-98500000D02*
X228375000Y-95200000D01*
X228375000Y-98500000D02*
X230875000Y-98500000D01*
X230875000Y-95200000D02*
X228375000Y-95200000D01*
X230875000Y-95200000D02*
X230875000Y-98500000D01*
%TO.C,J1*%
X189750000Y-120300000D02*
G75*
G02*
X178250000Y-120300000I-5750000J0D01*
G01*
X178250000Y-120300000D02*
G75*
G02*
X189750000Y-120300000I5750000J0D01*
G01*
%TO.C,R18*%
X209550000Y-114550000D02*
X213250000Y-114550000D01*
X209550000Y-116450000D02*
X209550000Y-114550000D01*
X213250000Y-114550000D02*
X213250000Y-116450000D01*
X213250000Y-116450000D02*
X209550000Y-116450000D01*
%TO.C,R14*%
X238150000Y-94950000D02*
X240050000Y-94950000D01*
X238150000Y-98650000D02*
X238150000Y-94950000D01*
X240050000Y-94950000D02*
X240050000Y-98650000D01*
X240050000Y-98650000D02*
X238150000Y-98650000D01*
%TO.C,C3*%
X223282500Y-90720000D02*
X227042500Y-90720000D01*
X223282500Y-92680000D02*
X223282500Y-90720000D01*
X227042500Y-90720000D02*
X227042500Y-92680000D01*
X227042500Y-92680000D02*
X223282500Y-92680000D01*
%TO.C,R11*%
X193906250Y-91817500D02*
X197606250Y-91817500D01*
X193906250Y-93717500D02*
X193906250Y-91817500D01*
X197606250Y-91817500D02*
X197606250Y-93717500D01*
X197606250Y-93717500D02*
X193906250Y-93717500D01*
%TO.C,R17*%
X236550000Y-101700000D02*
X238450000Y-101700000D01*
X236550000Y-105400000D02*
X236550000Y-101700000D01*
X238450000Y-101700000D02*
X238450000Y-105400000D01*
X238450000Y-105400000D02*
X236550000Y-105400000D01*
%TO.C,J4*%
X235960000Y-55150000D02*
X235960000Y-62510000D01*
X235960000Y-62510000D02*
X240370000Y-62510000D01*
X240370000Y-55150000D02*
X235960000Y-55150000D01*
X240370000Y-62510000D02*
X240370000Y-55150000D01*
%TO.C,R13*%
X201406250Y-96317500D02*
X203306250Y-96317500D01*
X201406250Y-100017500D02*
X201406250Y-96317500D01*
X203306250Y-96317500D02*
X203306250Y-100017500D01*
X203306250Y-100017500D02*
X201406250Y-100017500D01*
%TO.C,R6*%
X187250000Y-98750000D02*
X190950000Y-98750000D01*
X187250000Y-100650000D02*
X187250000Y-98750000D01*
X190950000Y-98750000D02*
X190950000Y-100650000D01*
X190950000Y-100650000D02*
X187250000Y-100650000D01*
%TO.C,R28*%
X232250000Y-68250000D02*
X234150000Y-68250000D01*
X232250000Y-71950000D02*
X232250000Y-68250000D01*
X234150000Y-68250000D02*
X234150000Y-71950000D01*
X234150000Y-71950000D02*
X232250000Y-71950000D01*
%TO.C,U3*%
X233650000Y-95450000D02*
X234650000Y-95450000D01*
X233650000Y-98450000D02*
X233650000Y-95450000D01*
X234650000Y-95250000D02*
X236750000Y-95250000D01*
X234650000Y-95450000D02*
X234650000Y-95250000D01*
X234650000Y-98450000D02*
X233650000Y-98450000D01*
X234650000Y-98650000D02*
X234650000Y-98450000D01*
X236750000Y-95250000D02*
X236750000Y-95450000D01*
X236750000Y-95450000D02*
X237750000Y-95450000D01*
X236750000Y-98450000D02*
X236750000Y-98650000D01*
X236750000Y-98650000D02*
X234650000Y-98650000D01*
X237750000Y-95450000D02*
X237750000Y-98450000D01*
X237750000Y-98450000D02*
X236750000Y-98450000D01*
%TO.C,D2*%
X234525000Y-84450000D02*
X238225000Y-84450000D01*
X234525000Y-86350000D02*
X234525000Y-84450000D01*
X238225000Y-84450000D02*
X238225000Y-86350000D01*
X238225000Y-86350000D02*
X234525000Y-86350000D01*
%TO.C,C23*%
X190982500Y-71070000D02*
X194742500Y-71070000D01*
X190982500Y-73030000D02*
X190982500Y-71070000D01*
X194742500Y-71070000D02*
X194742500Y-73030000D01*
X194742500Y-73030000D02*
X190982500Y-73030000D01*
%TO.C,R25*%
X204350000Y-73450000D02*
X208050000Y-73450000D01*
X204350000Y-75350000D02*
X204350000Y-73450000D01*
X208050000Y-73450000D02*
X208050000Y-75350000D01*
X208050000Y-75350000D02*
X204350000Y-75350000D01*
%TO.C,C22*%
X193020000Y-65780000D02*
X194980000Y-65780000D01*
X193020000Y-69540000D02*
X193020000Y-65780000D01*
X194980000Y-65780000D02*
X194980000Y-69540000D01*
X194980000Y-69540000D02*
X193020000Y-69540000D01*
%TO.C,C17*%
X226307500Y-104015000D02*
X230067500Y-104015000D01*
X226307500Y-105975000D02*
X226307500Y-104015000D01*
X230067500Y-104015000D02*
X230067500Y-105975000D01*
X230067500Y-105975000D02*
X226307500Y-105975000D01*
%TO.C,U12*%
X227450000Y-72110000D02*
X227450000Y-74310000D01*
X227450000Y-72110000D02*
X230450000Y-72110000D01*
X227450000Y-74310000D02*
X230450000Y-74310000D01*
X230450000Y-74310000D02*
X230450000Y-72110000D01*
%TD*%
M02*
